<?xml version="1.0" encoding="UTF-8"?>
<!DOCTYPE svg PUBLIC "-//W3C//DTD SVG 1.1//EN" "http://www.w3.org/Graphics/SVG/1.1/DTD/svg11.dtd">
<!-- Creator: CorelDRAW -->
<svg xmlns="http://www.w3.org/2000/svg" xml:space="preserve" width="30.0762mm" height="26.0785mm" version="1.1" style="shape-rendering:geometricPrecision; text-rendering:geometricPrecision; image-rendering:optimizeQuality; fill-rule:evenodd; clip-rule:evenodd"
viewBox="0 0 602.9 522.76"
 xmlns:xlink="http://www.w3.org/1999/xlink"
 xmlns:xodm="http://www.corel.com/coreldraw/odm/2003">
 <defs>
  <style type="text/css">
   <![CDATA[
    .str0 {stroke:#373435;stroke-width:1.53;stroke-miterlimit:22.9256}
    .fil0 {fill:#1AFF15}
   ]]>
  </style>
 </defs>
 <g id="Camada_x0020_1">
  <metadata id="CorelCorpID_0Corel-Layer"/>
  <g id="_1813607155968">
   <path class="fil0 str0" d="M216.35 357.47l-0.71 0 0 -0.71 0.71 0 0 0.71zm103.54 -20.57l-0.71 0 0 0.71 -0.71 0 0 0.71 -0.71 0 0 0.71 -0.71 0 0 0.71 -1.42 0 0 0.71 -0.71 0 0 0.71 -0.71 0 0 0.71 -1.42 0 0 0.71 -0.71 0 0 0.71 -1.42 0 0 0.71 -0.71 0 0 0.71 -1.42 0 0 0.71 -1.42 0 0 0.71 -1.42 0 0 0.71 -1.42 0 0 0.71 -1.42 0 0 0.71 -1.42 0 0 0.71 -1.42 0 0 0.71 -1.42 0 0 0.71 -1.42 0 0 0.71 -1.42 0 0 0.71 -2.13 0 0 0.71 -1.42 0 0 0.71 -2.13 0 0 0.71 -1.42 0 0 0.71 -2.13 0 0 0.71 -2.13 0 0 0.71 -2.13 0 0 0.71 -2.13 0 0 0.71 -2.13 0 0 0.71 -2.13 0 0 0.71 -2.13 0 0 0.71 -2.83 0 0 0.71 -2.84 0 0 0.71 -2.84 0 0 0.71 -2.84 0 0 0.71 -3.55 0 0 0.71 -4.25 0 0 0.71 -5.67 0 0 0.71 -19.15 0 0 -0.71 -3.55 0 0 -0.71 -2.13 0 0 -0.71 -2.13 0 0 -0.71 -1.42 0 0 -0.71 -0.71 0 0 -0.71 -1.42 0 0 -0.71 -0.71 0 0 -0.71 -0.71 0 0 -0.71 -0.71 0 0 -0.71 1.42 0 0 0.71 2.83 0 0 0.71 7.8 0 0 -0.71 3.55 0 0 -0.71 1.42 0 0 -0.71 2.13 0 0 -0.71 1.42 0 0 -0.71 0.71 0 0 -0.71 1.42 0 0 -0.71 0.71 0 0 -0.71 1.42 0 0 -0.71 0.71 0 0 -0.71 0.71 0 0 -0.71 0.71 0 0 -0.71 0.71 0 0 -1.42 -0.71 0 0 -0.71 -0.71 0 0 -0.71 -1.42 0 0 -0.71 -0.71 0 0 -0.71 -0.71 0 0 -0.71 -0.71 0 0 -0.71 -0.71 0 0 -1.42 -0.71 0 0 -0.71 -0.71 0 0 -0.71 -0.71 0 0 -1.42 -0.71 0 0 -0.71 -0.71 0 0 -1.42 -0.71 0 0 -1.42 -0.71 0 0 -1.42 -0.71 0 0 -2.13 -0.71 0 0 -1.42 -0.71 0 0 -2.13 -0.71 0 0 -2.84 -0.71 0 0 -3.55 -0.71 0 0 -15.6 1.42 0 0 0.71 2.13 0 0 0.71 12.06 0 0 -0.71 4.25 0 0 -0.71 3.55 0 0 -0.71 3.55 0 0 -0.71 3.55 0 0 -0.71 4.97 0 0 -0.71 7.09 0 0 -0.71 -0.71 0 0 -1.42 -0.71 0 0 -0.71 -0.71 0 0 -1.42 -0.71 0 0 -1.42 -0.71 0 0 -0.71 -0.71 0 0 -1.42 -0.71 0 0 -1.42 -0.71 0 0 -1.42 -0.71 0 0 -0.71 -0.71 0 0 -1.42 -0.71 0 0 -1.42 -0.71 0 0 -2.13 -0.71 0 0 -1.42 -0.71 0 0 -2.13 -0.71 0 0 -2.13 -0.71 0 0 -2.13 -0.71 0 0 -3.55 -0.71 0 0 -9.22 0.71 0 0 -1.42 0.71 0 0 0.71 0.71 0 0 0.71 0.71 0 0 0.71 3.55 0 0 -0.71 2.13 0 0 -0.71 1.42 0 0 -0.71 1.42 0 0 -0.71 1.42 0 0 -0.71 1.42 0 0 -0.71 1.42 0 0 -0.71 0.71 0 0 -0.71 1.42 0 0 -0.71 1.42 0 0 -0.71 0.71 0 0 -0.71 1.42 0 0 -0.71 1.42 0 0 -0.71 1.42 0 0 -0.71 0.71 0 0 -0.71 1.42 0 0 -0.71 1.42 0 0 -0.71 1.42 0 0 -0.71 1.42 0 0 -0.71 1.42 0 0 -0.71 1.42 0 0 -0.71 2.13 0 0 -0.71 1.42 0 0 -0.71 2.13 0 0 -0.71 2.13 0 0 -0.71 2.84 0 0 -0.71 2.84 0 0 -0.71 4.26 0 0 -0.71 11.35 0 0 0.71 3.55 0 0 -0.71 -0.71 0 0 -2.13 -0.71 0 0 -2.84 -0.71 0 0 -1.42 -0.71 0 0 -1.42 -0.71 0 0 -1.42 -0.71 0 0 -0.71 -0.71 0 0 -0.71 -0.71 0 0 -0.71 -0.71 0 0 -0.71 -0.71 0 0 -0.71 -0.71 0 0 -0.71 -0.71 0 0 -1.42 1.42 0 0 -0.71 1.42 0 0 -0.71 2.13 0 0 -0.71 2.13 0 0 -0.71 4.25 0 0 -0.71 5.67 0 0 0.71 4.97 0 0 0.71 2.84 0 0 0.71 2.13 0 0 0.71 2.13 0 0 0.71 2.13 0 0 0.71 1.42 0 0 0.71 1.42 0 0 0.71 2.13 0 0 0.71 1.42 0 0 0.71 1.42 0 0 0.71 1.42 0 0 0.71 1.42 0 0 0.71 1.42 0 0 0.71 1.42 0 0 0.71 1.42 0 0 0.71 1.42 0 0 0.71 1.42 0 0 0.71 2.13 0 0 0.71 1.42 0 0 0.71 1.42 0 0 0.71 2.13 0 0 0.71 1.42 0 0 0.71 2.13 0 0 0.71 2.84 0 0 0.71 2.84 0 0 0.71 4.96 0 0 0.71 6.38 0 0 -0.71 4.26 0 0 1.42 0.71 0 0 0.71 0.71 0 0 0.71 0.71 0 0 0.71 0.71 0 0 0.71 0.71 0 0 0.71 0.71 0 0 0.71 0.71 0 0 0.71 0.71 0 0 0.71 0.71 0 0 0.71 1.42 0 0 0.71 0.71 0 0 0.71 0.71 0 0 0.71 0.71 0 0 0.71 0.71 0 0 0.71 0.71 0 0 0.71 0.71 0 0 0.71 0.71 0 0 0.71 0.71 0 0 0.71 0.71 0 0 1.42 0.71 0 0 0.71 0.71 0 0 1.42 0.71 0 0 2.13 0.71 0 0 7.09 -0.71 0 0 1.42 -0.71 0 0 1.42 -0.71 0 0 1.42 -0.71 0 0 0.71 -0.71 0 0 0.71 -0.71 0 0 0.71 -0.71 0 0 0.71 0.71 0 0 0.71 1.42 0 0 0.71 1.42 0 0 0.71 0.71 0 0 0.71 1.42 0 0 0.71 0.71 0 0 1.42 0.71 0 0 0.71 0.71 0 0 1.42 0.71 0 0 0.71 0.71 0 0 1.42 0.71 0 0 1.42 0.71 0 0 1.42 0.71 0 0 1.42 0.71 0 0 0.71 0.71 0 0 0.71 0.71 0 0 1.42 0.71 0 0 0.71 0.71 0 0 0.71 0.71 0 0 0.71 0.71 0 0 0.71 0.71 0 0 0.71 1.42 0 0 0.71 0.71 0 0 0.71 0.71 0 0 0.71 1.42 0 0 0.71 0.71 0 0 0.71 1.42 0 0 0.71 0.71 0 0 0.71 1.42 0 0 0.71 1.42 0 0 0.71 0.71 0 0 0.71 1.42 0 0 0.71 1.42 0 0 0.71 1.42 0 0 0.71 1.42 0 0 0.71 1.42 0 0 0.71 0.71 0 0 0.71 -0.71 0 0 1.42 -0.71 0 0 0.71 -0.71 0 0 1.42 -0.71 0 0 0.71 -0.71 0 0 0.71 -0.71 0 0 0.71 -0.71 0 0 0.71 -0.71 0 0 0.71 -0.71 0 0 0.71 -0.71 0 0 1.42 -0.71 0 0 1.42 -0.71 0 0 1.42 -0.71 0 0 1.42 -0.71 0 0 1.42 -0.71 0 0 0.71 -0.71 0 0 0.71 -0.71 0 0 0.71 -0.71 0 0 0.71 -0.71 0 0 0.71 -0.71 0 0 0.71 -0.71 0 0 0.71 -1.42 0 0 0.71 -0.71 0 0 0.71 -1.42 0 0 0.71 -1.42 0 0 0.71 -2.13 0 0 0.71 -2.13 0 0 -1.42 0.71 0 0 -5.67 -0.71 0 0 -0.71 -0.71 0 0 -0.71 -0.71 0 0 -0.71 -0.71 0 0 -0.71 -0.71 0 0 -0.71 -0.71 0 0 -0.71 -1.42 0 0 -0.71 -0.71 0 0 -0.71 -0.71 0 0 -0.71 -1.42 0 0 -0.71 -1.42 0 0 -0.71 -0.71 0 0 -0.71 -1.42 0 0 -0.71 -1.42 0 0 -0.71 -1.42 0 0 -0.71 -2.13 0 0 -0.71 -2.84 0 0 0.71 -0.71 0 0 0.71 -0.71 0 0 1.42 -0.71 0 0 2.13 -0.71 0 0 7.09 0.71 0 0 2.13 0.71 0 0 1.42 0.71 0 0 0.71 0.71 0 0 0.71 0.71 0 0 0.71 0.71 0 0 0.71 0.71 0 0 0.71 0.71 0 0 0.71 0.71 0 0 0.71 0.71 0 0 0.71 0.71 0 0 0.71 1.42 0 0 0.71 1.42 0 0 0.71 2.13 0 0 0.71 2.84 0 0 0.71 -0.71 0 0 0.71 -0.71 0 0 0.71 -0.71 0 0 0.71 -0.71 0 0 0.71 -2.13 0 0 0.71 -0.71 0 0 1.42 -0.71 0 0 1.42 -0.71 0 0 0.71 -0.71 0 0 0.71 -0.71 0 0 0.71 -0.71 0 0 0.71 -1.42 0 0 0.71 -1.42 0 0 0.71 -1.42 0 0 -0.71 0.71 0 0 -4.25 -0.71 0 0 -2.84 -0.71 0 0 -1.42 -0.71 0 0 -1.42 -0.71 0 0 -0.71 -0.71 0 0 -0.71 -0.71 0 0 -0.71 -0.71 0 0 -0.71 -0.71 0 0 -0.71 -0.71 0 0 -0.71 -0.71 0 0 -0.71 -1.42 0 0 -0.71 -1.42 0 0 -0.71 -2.13 0 0 -0.71 -4.97 0 0 0.71 -1.42 0 0 0.71 -0.71 0 0 0.71 -0.71 0 0 0.71 -0.71 0 0 1.42 -0.71 0 0 2.13 -0.71 0 0 4.96 0.71 0 0 2.84 0.71 0 0 2.13 0.71 0 0 1.42 0.71 0 0 1.42 0.71 0 0 1.42 0.71 0 0 0.71 0.71 0 0 1.42 0.71 0 0 0.71 0.71 0 0 0.71 1.42 0 0 0.71 0.71 0 0 0.71 1.42 0 0 0.71 1.42 0 0 0.71 2.13 0 0 0.71 2.84 0 0 0.71 4.25 0 0 0.71 10.64 0 0 0.71 0.71 0 0 0.71 0.71 0 0 1.42 0.71 0 0 0.71 0.71 0 0 1.42 0.71 0 0 0.71 0.71 0 0 1.42 0.71 0 0 0.71 0.71 0 0 1.42 0.71 0 0 1.42 0.71 0 0 2.13 0.71 0 0 1.42 0.71 0 0 2.84 0.71 0 0 2.84 0.71 0 0 13.47 -0.71 0 0 2.84 -0.71 0 0 2.13 -0.71 0 0 1.42 -0.71 0 0 -9.22 -0.71 0 0 -4.26 -0.71 0 0 -2.13 -0.71 0 0 -2.13 -0.71 0 0 -1.42 -0.71 0 0 -0.71 -0.71 0 0 -1.42 -0.71 0 0 -0.71 -0.71 0 0 3.55 0.71 0 0 12.06 -0.71 0 0 4.26 -0.71 0 0 2.84 -0.71 0 0 2.84 -0.71 0 0 2.13 -0.71 0 0 2.13 -0.71 0 0 1.42 -0.71 0 0 1.42 -0.71 0 0 1.42 -0.71 0 0 1.42 -0.71 0 0 1.42 -0.71 0 0 1.42 -0.71 0 0 1.42 -0.71 0 0 0.71 -0.71 0 0 1.42 -0.71 0 0 0.71 -0.71 0 0 1.42 -0.71 0 0 0.71 -0.71 0 0 0.71 -0.71 0 0 0.71 -0.71 0 0 1.42 -0.71 0 0 0.71 -0.71 0 0 0.71 -1.42 0 0 0.71 -0.71 0 0 0.71 -0.71 0 0 0.71 -0.71 0 0 0.71 -1.42 0 0 0.71 -0.71 0 0 0.71 -1.42 0 0 0.71 -0.71 0 0 -2.84 0.71 0 0 -2.84 0.71 0 0 -11.35 -0.71 0 0 -3.55 -0.71 0 0 -2.13 -0.71 0 0 -2.13 -0.71 0 0 -2.13 -0.71 0 0 -1.42 -0.71 0 0 -0.71 -0.71 0 0 1.42 0.71 0 0 9.93 -0.71 0 0 4.26 -0.71 0 0 2.84 -0.71 0 0 1.42 -0.71 0 0 1.42 -0.71 0 0 1.42 -0.71 0 0 1.42 -0.71 0 0 0.71 -0.71 0 0 1.42 -0.71 0 0 0.71 -0.71 0 0 0.71 -0.71 0 0 0.71 -0.71 0 0 0.71 -1.42 0 0 0.71 -0.71 0 0 0.71 -1.42 0 0 0.71 -0.71 0 0 -1.42 0.71 0 0 -2.13 0.71 0 0 -11.35 -0.71 0 0 -2.84 -0.71 0 0 -2.13 -0.71 0 0 -1.42 -0.71 0 0 -1.42 -0.71 0 0 -2.13 -0.71 0 0 -1.42 -0.71 0 0 -0.71 -0.71 0 0 -1.42 -0.71 0 0 -1.42 -0.71 0 0 -1.42 -0.71 0 0 -0.71 -0.71 0 0 -1.42 -0.71 0 0 -1.42 -0.71 0 0 -0.71 -0.71 0 0 -1.42 -0.71 0 0 -0.71 -0.71 0 0 -1.42 -0.71 0 0 -0.71 -0.71 0 0 -1.42 -0.71 0 0 -0.71 -0.71 0 0 -1.42 -0.71 0 0 -1.42 -0.71 0 0 -0.71 -0.71 0 0 -1.42 -0.71 0 0 -1.42 -0.71 0 0 -0.71 -0.71 0 0 -1.42 -0.71 0 0 -1.42 -0.71 0 0 -1.42 -0.71 0 0 -1.42 -0.71 0 0 -1.42 -0.71 0 0 -2.13 -0.71 0 0 -2.13 -0.71 0 0 -2.13 -0.71 0 0 -3.55 -0.71 0 0 -9.22 0.71 0 0 -2.84 -0.71 0 0 1.42 -0.71 0 0 2.13 -0.71 0 0 3.55 -0.71 0 0 9.93 0.71 0 0 3.54 0.71 0 0 2.13 0.71 0 0 2.13 0.71 0 0 2.13 0.71 0 0 1.42 0.71 0 0 2.13 0.71 0 0 1.42 0.71 0 0 1.42 0.71 0 0 1.42 0.71 0 0 1.42 0.71 0 0 0.71 0.71 0 0 1.42 0.71 0 0 1.42 0.71 0 0 1.42 0.71 0 0 1.42 0.71 0 0 0.71 0.71 0 0 1.42 0.71 0 0 1.42 0.71 0 0 1.42 0.71 0 0 0.71 0.71 0 0 1.42 0.71 0 0 1.42 0.71 0 0 1.42 0.71 0 0 1.42 0.71 0 0 1.42 0.71 0 0 2.13 0.71 0 0 1.42 0.71 0 0 2.13 0.71 0 0 2.13 0.71 0 0 4.26 0.71 0 0 7.09 -0.71 0 0 2.84 -0.71 0 0 1.42 -0.71 0 0 1.42 -0.71 0 0 1.42 -0.71 0 0 0.71 -0.71 0 0 0.71 -0.71 0 0 0.71 -0.71 0 0 0.71 -1.42 0 0 0.71 -0.71 0 0 0.71 -1.42 0 0 0.71 -2.13 0 0 0.71 -2.84 0 0 1.42 -0.71 0 0 2.13 -0.71 0 0 1.42 -0.71 0 0 1.42 -0.71 0 0 1.42 -0.71 0 0 1.42 -0.71 0 0 1.42 -0.71 0 0 0.71 -0.71 0 0 1.42 -0.71 0 0 1.42 -0.71 0 0 1.42 -0.71 0 0 0.71 -0.71 0 0 1.42 -0.71 0 0 1.42 -0.71 0 0 0.71 -0.71 0 0 1.42 -0.71 0 0 0.71 -0.71 0 0 1.42 -0.71 0 0 0.71 -0.71 0 0 1.42 -0.71 0 0 0.71 -0.71 0 0 1.42 -0.71 0 0 0.71 -0.71 0 0 1.42 -0.71 0 0 0.71 -0.71 0 0 1.42 -0.71 0 0 0.71 -0.71 0 0 0.71 -0.71 0 0 1.42 -0.71 0 0 2.84 -0.71 0 0 2.84 -0.71 0 0 3.55 -0.71 0 0 3.55 -0.71 0 0 4.26 -0.71 0 0 4.25 -0.71 0 0 7.09 -0.71 0 0 9.93 4.25 0 0 -0.71 0.71 0 0 -1.42 -0.71 0 0 -2.13 0.71 0 0 -10.64 0.71 0 0 -4.96 0.71 0 0 -4.26 0.71 0 0 -3.54 0.71 0 0 -3.55 0.71 0 0 -2.84 0.71 0 0 -2.84 0.71 0 0 -0.71 0.71 0 0 -1.42 0.71 0 0 -0.71 0.71 0 0 -0.71 0.71 0 0 -1.42 0.71 0 0 -0.71 0.71 0 0 -1.42 0.71 0 0 -0.71 0.71 0 0 -1.42 0.71 0 0 -0.71 0.71 0 0 -1.42 0.71 0 0 -0.71 0.71 0 0 -1.42 0.71 0 0 -1.42 0.71 0 0 -0.71 0.71 0 0 -1.42 0.71 0 0 -0.71 0.71 0 0 -1.42 0.71 0 0 -1.42 0.71 0 0 -1.42 0.71 0 0 -0.71 0.71 0 0 -1.42 0.71 0 0 -1.42 0.71 0 0 -1.42 0.71 0 0 -1.42 0.71 0 0 -1.42 0.71 0 0 -1.42 0.71 0 0 -0.71 0.71 0 0 -0.71 2.13 0 0 -0.71 1.42 0 0 -0.71 1.42 0 0 -0.71 0.71 0 0 -0.71 1.42 0 0 -0.71 0.71 0 0 1.42 -0.71 0 0 2.13 -0.71 0 0 2.13 -0.71 0 0 2.13 -0.71 0 0 2.13 -0.71 0 0 2.13 -0.71 0 0 1.42 -0.71 0 0 2.13 -0.71 0 0 2.13 -0.71 0 0 1.42 -0.71 0 0 1.42 -0.71 0 0 2.13 -0.71 0 0 1.42 -0.71 0 0 1.42 -0.71 0 0 2.13 -0.71 0 0 1.42 -0.71 0 0 1.42 -0.71 0 0 1.42 -0.71 0 0 1.42 -0.71 0 0 0.71 -0.71 0 0 1.42 -0.71 0 0 0.71 -0.71 0 0 2.13 -0.71 0 0 23.4 0.71 0 0 7.09 0.71 0 0 3.55 0.71 0 0 0.71 248.92 0 0 -0.71 -0.71 0 0 -1.42 -0.71 0 0 -1.42 -0.71 0 0 -1.42 -0.71 0 0 -0.71 -0.71 0 0 -1.42 -0.71 0 0 -1.42 -0.71 0 0 -1.42 -0.71 0 0 -0.71 -0.71 0 0 -1.42 -0.71 0 0 -1.42 -0.71 0 0 -1.42 -0.71 0 0 -0.71 -0.71 0 0 -1.42 -0.71 0 0 -1.42 -0.71 0 0 -0.71 -0.71 0 0 -1.42 -0.71 0 0 -1.42 -0.71 0 0 -1.42 -0.71 0 0 -0.71 -0.71 0 0 -1.42 -0.71 0 0 -1.42 -0.71 0 0 -1.42 -0.71 0 0 -0.71 -0.71 0 0 -1.42 -0.71 0 0 -1.42 -0.71 0 0 -1.42 -0.71 0 0 -0.71 -0.71 0 0 -1.42 -0.71 0 0 -1.42 -0.71 0 0 -0.71 -0.71 0 0 -1.42 -0.71 0 0 -1.42 -0.71 0 0 -1.42 -0.71 0 0 -0.71 -0.71 0 0 -1.42 -0.71 0 0 -1.42 -0.71 0 0 -1.42 -0.71 0 0 -0.71 -0.71 0 0 -1.42 -0.71 0 0 -1.42 -0.71 0 0 -0.71 -0.71 0 0 -1.42 -0.71 0 0 -1.42 -0.71 0 0 -1.42 -0.71 0 0 -0.71 -0.71 0 0 -1.42 -0.71 0 0 -1.42 -0.71 0 0 -1.42 -0.71 0 0 -0.71 -0.71 0 0 -1.42 -0.71 0 0 -1.42 -0.71 0 0 -1.42 -0.71 0 0 -0.71 -0.71 0 0 -1.42 -0.71 0 0 -1.42 -0.71 0 0 -0.71 -0.71 0 0 -1.42 -0.71 0 0 -1.42 -0.71 0 0 -1.42 -0.71 0 0 -0.71 -0.71 0 0 -1.42 -0.71 0 0 -1.42 -0.71 0 0 -1.42 -0.71 0 0 -0.71 -0.71 0 0 -1.42 -0.71 0 0 -1.42 -0.71 0 0 -1.42 -0.71 0 0 -0.71 -0.71 0 0 -1.42 -0.71 0 0 -1.42 -0.71 0 0 -0.71 -0.71 0 0 -1.42 -0.71 0 0 -1.42 -0.71 0 0 -1.42 -0.71 0 0 -0.71 -0.71 0 0 -1.42 -0.71 0 0 -1.42 -0.71 0 0 -1.42 -0.71 0 0 -0.71 -0.71 0 0 -1.42 -0.71 0 0 -1.42 -0.71 0 0 -0.71 -0.71 0 0 -1.42 -0.71 0 0 -1.42 -0.71 0 0 -1.42 -0.71 0 0 -0.71 -0.71 0 0 -1.42 -0.71 0 0 -1.42 -0.71 0 0 -1.42 -0.71 0 0 -0.71 -0.71 0 0 -1.42 -0.71 0 0 -1.42 -0.71 0 0 -1.42 -0.71 0 0 -0.71 -0.71 0 0 -1.42 -0.71 0 0 -1.42 -0.71 0 0 -0.71 -0.71 0 0 -1.42 -0.71 0 0 -1.42 -0.71 0 0 -1.42 -0.71 0 0 -0.71 -0.71 0 0 -1.42 -0.71 0 0 -1.42 -0.71 0 0 -1.42 -0.71 0 0 -0.71 -0.71 0 0 -1.42 -0.71 0 0 -1.42 -0.71 0 0 -1.42 -0.71 0 0 -0.71 -0.71 0 0 -1.42 -0.71 0 0 -1.42 -0.71 0 0 -0.71 -0.71 0 0 -1.42 -0.71 0 0 -1.42 -0.71 0 0 -1.42 -0.71 0 0 -0.71 -0.71 0 0 -1.42 -0.71 0 0 -1.42 -0.71 0 0 -1.42 -0.71 0 0 -0.71 -0.71 0 0 -1.42 -0.71 0 0 -1.42 -0.71 0 0 -1.42 -0.71 0 0 -0.71 -0.71 0 0 -1.42 -0.71 0 0 -1.42 -0.71 0 0 -0.71 -0.71 0 0 -1.42 -0.71 0 0 -1.42 -0.71 0 0 -1.42 -0.71 0 0 -0.71 -0.71 0 0 -1.42 -0.71 0 0 -1.42 -0.71 0 0 -1.42 -0.71 0 0 -0.71 -0.71 0 0 -1.42 -0.71 0 0 -1.42 -0.71 0 0 -0.71 -0.71 0 0 -1.42 -0.71 0 0 -1.42 -0.71 0 0 -1.42 -0.71 0 0 -0.71 -0.71 0 0 -1.42 -0.71 0 0 -1.42 -0.71 0 0 -1.42 -0.71 0 0 -0.71 -0.71 0 0 -1.42 -0.71 0 0 -1.42 -0.71 0 0 -1.42 -0.71 0 0 -0.71 -0.71 0 0 -1.42 -0.71 0 0 -1.42 -0.71 0 0 -0.71 -0.71 0 0 -1.42 -0.71 0 0 -1.42 -0.71 0 0 -1.42 -0.71 0 0 -0.71 -0.71 0 0 -1.42 -0.71 0 0 -1.42 -0.71 0 0 -1.42 -0.71 0 0 -0.71 -0.71 0 0 -1.42 -0.71 0 0 -1.42 -0.71 0 0 -1.42 -0.71 0 0 -0.71 -0.71 0 0 -1.42 -0.71 0 0 -1.42 -0.71 0 0 -0.71 -0.71 0 0 -1.42 -0.71 0 0 -1.42 -0.71 0 0 -1.42 -0.71 0 0 -0.71 -0.71 0 0 -1.42 -0.71 0 0 -1.42 -0.71 0 0 -1.42 -0.71 0 0 -0.71 -0.71 0 0 -1.42 -0.71 0 0 -1.42 -0.71 0 0 -1.42 -0.71 0 0 -0.71 -0.71 0 0 -1.42 -0.71 0 0 -1.42 -0.71 0 0 -0.71 -0.71 0 0 -1.42 -0.71 0 0 -1.42 -0.71 0 0 -1.42 -0.71 0 0 -0.71 -0.71 0 0 -1.42 -0.71 0 0 -1.42 -0.71 0 0 -1.42 -0.71 0 0 -0.71 -0.71 0 0 -1.42 -0.71 0 0 -1.42 -0.71 0 0 -0.71 -0.71 0 0 -1.42 -0.71 0 0 -1.42 -0.71 0 0 -1.42 -0.71 0 0 -0.71 -0.71 0 0 -1.42 -0.71 0 0 -1.42 -0.71 0 0 -1.42 -0.71 0 0 -0.71 -0.71 0 0 -1.42 -0.71 0 0 -1.42 -0.71 0 0 -1.42 -0.71 0 0 -0.71 -0.71 0 0 -1.42 -0.71 0 0 -1.42 -0.71 0 0 -0.71 -0.71 0 0 -1.42 -0.71 0 0 -1.42 -0.71 0 0 -1.42 -0.71 0 0 -0.71 -0.71 0 0 -1.42 -0.71 0 0 -1.42 -0.71 0 0 -1.42 -0.71 0 0 -0.71 -0.71 0 0 -1.42 -0.71 0 0 -1.42 -0.71 0 0 -1.42 -0.71 0 0 -0.71 -0.71 0 0 -1.42 -0.71 0 0 -1.42 -0.71 0 0 -0.71 -0.71 0 0 -1.42 -0.71 0 0 -1.42 -0.71 0 0 -1.42 -0.71 0 0 -0.71 -0.71 0 0 -1.42 -0.71 0 0 -1.42 -0.71 0 0 -1.42 -0.71 0 0 -0.71 -0.71 0 0 -1.42 -0.71 0 0 -1.42 -0.71 0 0 -0.71 -0.71 0 0 -1.42 -0.71 0 0 -1.42 -0.71 0 0 -1.42 -0.71 0 0 -0.71 -0.71 0 0 -1.42 -0.71 0 0 -1.42 -0.71 0 0 -1.42 -0.71 0 0 -0.71 -0.71 0 0 -1.42 -0.71 0 0 -1.42 -0.71 0 0 -1.42 -0.71 0 0 -0.71 -0.71 0 0 -1.42 -0.71 0 0 -1.42 -0.71 0 0 -0.71 -0.71 0 0 -1.42 -0.71 0 0 -1.42 -0.71 0 0 -1.42 -0.71 0 0 -0.71 -0.71 0 0 -1.42 -0.71 0 0 -1.42 -0.71 0 0 -1.42 -0.71 0 0 -0.71 -0.71 0 0 -1.42 -0.71 0 0 -1.42 -0.71 0 0 -1.42 -0.71 0 0 -0.71 -0.71 0 0 -1.42 -0.71 0 0 -1.42 -0.71 0 0 -0.71 -0.71 0 0 -1.42 -0.71 0 0 -1.42 -0.71 0 0 -1.42 -0.71 0 0 -0.71 -0.71 0 0 -1.42 -0.71 0 0 -1.42 -0.71 0 0 -1.42 -0.71 0 0 -0.71 -0.71 0 0 -1.42 -0.71 0 0 -1.42 -0.71 0 0 -1.42 -0.71 0 0 -0.71 -0.71 0 0 -1.42 -0.71 0 0 -1.42 -0.71 0 0 -0.71 -0.71 0 0 -1.42 -0.71 0 0 -1.42 -0.71 0 0 -1.42 -0.71 0 0 -0.71 -0.71 0 0 -1.42 -0.71 0 0 -1.42 -0.71 0 0 -1.42 -0.71 0 0 -0.71 -0.71 0 0 -1.42 -0.71 0 0 -1.42 -0.71 0 0 -0.71 -0.71 0 0 -1.42 -0.71 0 0 -1.42 -0.71 0 0 -1.42 -0.71 0 0 -0.71 -0.71 0 0 -1.42 -0.71 0 0 -1.42 -0.71 0 0 -1.42 -0.71 0 0 -0.71 -0.71 0 0 -1.42 -0.71 0 0 -1.42 -0.71 0 0 -1.42 -0.71 0 0 -0.71 -0.71 0 0 -1.42 -0.71 0 0 -1.42 -0.71 0 0 -0.71 -0.71 0 0 -1.42 -0.71 0 0 -1.42 -0.71 0 0 -1.42 -0.71 0 0 -0.71 -0.71 0 0 -1.42 -0.71 0 0 -1.42 -0.71 0 0 -1.42 -0.71 0 0 -0.71 -0.71 0 0 -1.42 -0.71 0 0 -1.42 -0.71 0 0 -1.42 -0.71 0 0 -0.71 -0.71 0 0 -1.42 -0.71 0 0 -1.42 -0.71 0 0 -0.71 -0.71 0 0 -1.42 -0.71 0 0 -1.42 -0.71 0 0 -1.42 -0.71 0 0 -0.71 -0.71 0 0 -1.42 -0.71 0 0 -1.42 -0.71 0 0 -1.42 -0.71 0 0 -0.71 -0.71 0 0 -1.42 -0.71 0 0 -1.42 -0.71 0 0 -1.42 -0.71 0 0 -0.71 -0.71 0 0 -1.42 -0.71 0 0 -1.42 -0.71 0 0 -0.71 -0.71 0 0 -1.42 -0.71 0 0 -1.42 -0.71 0 0 -1.42 -0.71 0 0 -0.71 -0.71 0 0 -1.42 -0.71 0 0 -1.42 -0.71 0 0 -1.42 -0.71 0 0 -0.71 -0.71 0 0 -1.42 -0.71 0 0 -1.42 -0.71 0 0 -0.71 -0.71 0 0 -1.42 -0.71 0 0 -1.42 -0.71 0 0 -1.42 -0.71 0 0 -0.71 -0.71 0 0 -1.42 -0.71 0 0 -1.42 -0.71 0 0 -1.42 -0.71 0 0 -0.71 -0.71 0 0 -1.42 -0.71 0 0 -1.42 -0.71 0 0 -1.42 -0.71 0 0 -0.71 -0.71 0 0 -1.42 -0.71 0 0 -1.42 -0.71 0 0 -0.71 -0.71 0 0 -1.42 -0.71 0 0 -1.42 -0.71 0 0 -1.42 -0.71 0 0 -0.71 -0.71 0 0 -1.42 -0.71 0 0 -1.42 -0.71 0 0 -1.42 -0.71 0 0 -0.71 -0.71 0 0 -1.42 -0.71 0 0 -1.42 -0.71 0 0 -1.42 -0.71 0 0 -0.71 -0.71 0 0 -1.42 -0.71 0 0 -1.42 -0.71 0 0 -0.71 -0.71 0 0 -1.42 -0.71 0 0 -1.42 -0.71 0 0 -1.42 -0.71 0 0 -0.71 -0.71 0 0 -1.42 -0.71 0 0 -1.42 -0.71 0 0 -1.42 -0.71 0 0 -0.71 -0.71 0 0 -1.42 -0.71 0 0 -1.42 -0.71 0 0 -1.42 -0.71 0 0 -0.71 -0.71 0 0 -1.42 -0.71 0 0 -1.42 -0.71 0 0 -0.71 -0.71 0 0 -1.42 -0.71 0 0 -1.42 -0.71 0 0 -1.42 -0.71 0 0 -0.71 -0.71 0 0 -1.42 -0.71 0 0 -1.42 -0.71 0 0 -1.42 -0.71 0 0 -0.71 -0.71 0 0 -1.42 -0.71 0 0 -1.42 -0.71 0 0 -0.71 -0.71 0 0 -1.42 -0.71 0 0 -1.42 -0.71 0 0 -1.42 -0.71 0 0 -0.71 -0.71 0 0 -1.42 -0.71 0 0 -1.42 -0.71 0 0 -1.42 -0.71 0 0 -0.71 -0.71 0 0 -1.42 -0.71 0 0 -1.42 -0.71 0 0 -1.42 -0.71 0 0 -0.71 -0.71 0 0 -1.42 -0.71 0 0 -1.42 -0.71 0 0 -0.71 -0.71 0 0 -1.42 -0.71 0 0 -1.42 -0.71 0 0 -1.42 -0.71 0 0 -0.71 -0.71 0 0 -1.42 -0.71 0 0 -0.71 -0.71 0 0 0.71 -0.71 0 0 1.42 -0.71 0 0 1.42 -0.71 0 0 1.42 -0.71 0 0 0.71 -0.71 0 0 1.42 -0.71 0 0 1.42 -0.71 0 0 1.42 -0.71 0 0 0.71 -0.71 0 0 1.42 -0.71 0 0 1.42 -0.71 0 0 1.42 -0.71 0 0 0.71 -0.71 0 0 1.42 -0.71 0 0 1.42 -0.71 0 0 0.71 -0.71 0 0 1.42 -0.71 0 0 1.42 -0.71 0 0 1.42 -0.71 0 0 0.71 -0.71 0 0 1.42 -0.71 0 0 1.42 -0.71 0 0 1.42 -0.71 0 0 0.71 -0.71 0 0 1.42 -0.71 0 0 1.42 -0.71 0 0 0.71 -0.71 0 0 1.42 -0.71 0 0 1.42 -0.71 0 0 1.42 -0.71 0 0 0.71 -0.71 0 0 1.42 -0.71 0 0 1.42 -0.71 0 0 1.42 -0.71 0 0 0.71 -0.71 0 0 1.42 -0.71 0 0 1.42 -0.71 0 0 1.42 -0.71 0 0 0.71 -0.71 0 0 1.42 -0.71 0 0 1.42 -0.71 0 0 0.71 -0.71 0 0 1.42 -0.71 0 0 1.42 -0.71 0 0 1.42 -0.71 0 0 0.71 -0.71 0 0 1.42 -0.71 0 0 1.42 -0.71 0 0 1.42 -0.71 0 0 0.71 -0.71 0 0 1.42 -0.71 0 0 1.42 -0.71 0 0 1.42 -0.71 0 0 0.71 -0.71 0 0 1.42 -0.71 0 0 1.42 -0.71 0 0 0.71 -0.71 0 0 1.42 -0.71 0 0 1.42 -0.71 0 0 1.42 -0.71 0 0 0.71 -0.71 0 0 1.42 -0.71 0 0 1.42 -0.71 0 0 1.42 -0.71 0 0 0.71 -0.71 0 0 1.42 -0.71 0 0 1.42 -0.71 0 0 1.42 -0.71 0 0 0.71 -0.71 0 0 1.42 -0.71 0 0 1.42 -0.71 0 0 0.71 -0.71 0 0 1.42 -0.71 0 0 1.42 -0.71 0 0 1.42 -0.71 0 0 0.71 -0.71 0 0 1.42 -0.71 0 0 1.42 -0.71 0 0 1.42 -0.71 0 0 0.71 -0.71 0 0 1.42 -0.71 0 0 1.42 -0.71 0 0 0.71 -0.71 0 0 1.42 -0.71 0 0 1.42 -0.71 0 0 1.42 -0.71 0 0 0.71 -0.71 0 0 1.42 -0.71 0 0 1.42 -0.71 0 0 1.42 -0.71 0 0 0.71 -0.71 0 0 1.42 -0.71 0 0 1.42 -0.71 0 0 1.42 -0.71 0 0 0.71 -0.71 0 0 1.42 -0.71 0 0 1.42 -0.71 0 0 0.71 -0.71 0 0 1.42 -0.71 0 0 1.42 -0.71 0 0 1.42 -0.71 0 0 0.71 -0.71 0 0 1.42 -0.71 0 0 1.42 -0.71 0 0 1.42 -0.71 0 0 0.71 -0.71 0 0 1.42 -0.71 0 0 1.42 -0.71 0 0 1.42 -0.71 0 0 0.71 -0.71 0 0 1.42 -0.71 0 0 1.42 -0.71 0 0 0.71 -0.71 0 0 1.42 -0.71 0 0 1.42 -0.71 0 0 1.42 -0.71 0 0 0.71 -0.71 0 0 1.42 -0.71 0 0 1.42 -0.71 0 0 1.42 -0.71 0 0 0.71 -0.71 0 0 1.42 -0.71 0 0 1.42 -0.71 0 0 1.42 -0.71 0 0 0.71 -0.71 0 0 1.42 -0.71 0 0 1.42 -0.71 0 0 0.71 -0.71 0 0 1.42 -0.71 0 0 1.42 -0.71 0 0 1.42 -0.71 0 0 0.71 -0.71 0 0 1.42 -0.71 0 0 1.42 -0.71 0 0 1.42 -0.71 0 0 0.71 -0.71 0 0 1.42 -0.71 0 0 1.42 -0.71 0 0 0.71 -0.71 0 0 1.42 -0.71 0 0 1.42 -0.71 0 0 1.42 -0.71 0 0 0.71 -0.71 0 0 1.42 -0.71 0 0 1.42 -0.71 0 0 1.42 -0.71 0 0 0.71 -0.71 0 0 1.42 -0.71 0 0 1.42 -0.71 0 0 1.42 -0.71 0 0 0.71 -0.71 0 0 1.42 -0.71 0 0 1.42 -0.71 0 0 0.71 -0.71 0 0 1.42 -0.71 0 0 1.42 -0.71 0 0 1.42 -0.71 0 0 0.71 -0.71 0 0 1.42 -0.71 0 0 1.42 -0.71 0 0 1.42 -0.71 0 0 0.71 -0.71 0 0 1.42 -0.71 0 0 1.42 -0.71 0 0 1.42 -0.71 0 0 0.71 -0.71 0 0 1.42 -0.71 0 0 1.42 -0.71 0 0 0.71 -0.71 0 0 1.42 -0.71 0 0 1.42 -0.71 0 0 1.42 -0.71 0 0 0.71 -0.71 0 0 1.42 -0.71 0 0 1.42 -0.71 0 0 1.42 -0.71 0 0 0.71 -0.71 0 0 1.42 -0.71 0 0 1.42 -0.71 0 0 0.71 -0.71 0 0 1.42 -0.71 0 0 1.42 -0.71 0 0 1.42 -0.71 0 0 0.71 -0.71 0 0 1.42 -0.71 0 0 1.42 -0.71 0 0 1.42 -0.71 0 0 0.71 -0.71 0 0 1.42 -0.71 0 0 1.42 -0.71 0 0 1.42 -0.71 0 0 0.71 -0.71 0 0 1.42 -0.71 0 0 1.42 -0.71 0 0 0.71 -0.71 0 0 1.42 -0.71 0 0 1.42 -0.71 0 0 1.42 -0.71 0 0 0.71 -0.71 0 0 1.42 -0.71 0 0 1.42 -0.71 0 0 1.42 -0.71 0 0 0.71 -0.71 0 0 1.42 -0.71 0 0 1.42 -0.71 0 0 1.42 -0.71 0 0 0.71 -0.71 0 0 1.42 -0.71 0 0 1.42 -0.71 0 0 0.71 -0.71 0 0 1.42 -0.71 0 0 1.42 -0.71 0 0 1.42 -0.71 0 0 0.71 -0.71 0 0 1.42 -0.71 0 0 1.42 -0.71 0 0 1.42 -0.71 0 0 0.71 -0.71 0 0 1.42 -0.71 0 0 1.42 -0.71 0 0 1.42 -0.71 0 0 0.71 -0.71 0 0 1.42 -0.71 0 0 1.42 -0.71 0 0 0.71 -0.71 0 0 1.42 -0.71 0 0 1.42 -0.71 0 0 1.42 -0.71 0 0 0.71 -0.71 0 0 1.42 -0.71 0 0 1.42 -0.71 0 0 1.42 -0.71 0 0 0.71 -0.71 0 0 1.42 -0.71 0 0 1.42 -0.71 0 0 0.71 -0.71 0 0 1.42 -0.71 0 0 1.42 -0.71 0 0 1.42 -0.71 0 0 0.71 -0.71 0 0 1.42 -0.71 0 0 1.42 -0.71 0 0 1.42 -0.71 0 0 0.71 -0.71 0 0 1.42 -0.71 0 0 1.42 -0.71 0 0 1.42 -0.71 0 0 0.71 -0.71 0 0 1.42 -0.71 0 0 1.42 -0.71 0 0 0.71 -0.71 0 0 1.42 -0.71 0 0 1.42 -0.71 0 0 1.42 -0.71 0 0 0.71 -0.71 0 0 1.42 -0.71 0 0 1.42 -0.71 0 0 1.42 -0.71 0 0 0.71 -0.71 0 0 1.42 -0.71 0 0 1.42 -0.71 0 0 1.42 -0.71 0 0 0.71 -0.71 0 0 1.42 -0.71 0 0 1.42 -0.71 0 0 0.71 -0.71 0 0 1.42 -0.71 0 0 1.42 -0.71 0 0 1.42 -0.71 0 0 0.71 -0.71 0 0 1.42 -0.71 0 0 1.42 -0.71 0 0 1.42 -0.71 0 0 0.71 -0.71 0 0 1.42 -0.71 0 0 1.42 -0.71 0 0 1.42 -0.71 0 0 0.71 -0.71 0 0 1.42 -0.71 0 0 1.42 -0.71 0 0 0.71 -0.71 0 0 1.42 -0.71 0 0 1.42 -0.71 0 0 1.42 -0.71 0 0 0.71 -0.71 0 0 1.42 -0.71 0 0 1.42 -0.71 0 0 1.42 -0.71 0 0 0.71 -0.71 0 0 1.42 -0.71 0 0 1.42 -0.71 0 0 0.71 -0.71 0 0 1.42 -0.71 0 0 1.42 -0.71 0 0 1.42 -0.71 0 0 0.71 -0.71 0 0 1.42 -0.71 0 0 1.42 -0.71 0 0 1.42 -0.71 0 0 0.71 -0.71 0 0 1.42 -0.71 0 0 1.42 -0.71 0 0 1.42 -0.71 0 0 0.71 -0.71 0 0 1.42 -0.71 0 0 1.42 -0.71 0 0 0.71 -0.71 0 0 1.42 -0.71 0 0 1.42 -0.71 0 0 1.42 -0.71 0 0 0.71 -0.71 0 0 1.42 -0.71 0 0 1.42 -0.71 0 0 1.42 -0.71 0 0 0.71 -0.71 0 0 1.42 -0.71 0 0 1.42 -0.71 0 0 1.42 -0.71 0 0 0.71 -0.71 0 0 1.42 -0.71 0 0 1.42 -0.71 0 0 0.71 -0.71 0 0 1.42 -0.71 0 0 1.42 -0.71 0 0 1.42 -0.71 0 0 0.71 -0.71 0 0 1.42 -0.71 0 0 1.42 -0.71 0 0 1.42 -0.71 0 0 0.71 -0.71 0 0 1.42 -0.71 0 0 1.42 -0.71 0 0 0.71 -0.71 0 0 1.42 -0.71 0 0 1.42 -0.71 0 0 1.42 -0.71 0 0 0.71 -0.71 0 0 1.42 -0.71 0 0 1.42 -0.71 0 0 1.42 -0.71 0 0 0.71 -0.71 0 0 1.42 -0.71 0 0 1.42 -0.71 0 0 1.42 -0.71 0 0 0.71 -0.71 0 0 1.42 -0.71 0 0 1.42 -0.71 0 0 0.71 -0.71 0 0 1.42 -0.71 0 0 1.42 -0.71 0 0 1.42 -0.71 0 0 0.71 -0.71 0 0 1.42 -0.71 0 0 1.42 -0.71 0 0 1.42 -0.71 0 0 0.71 -0.71 0 0 1.42 -0.71 0 0 1.42 -0.71 0 0 1.42 -0.71 0 0 0.71 -0.71 0 0 1.42 -0.71 0 0 1.42 -0.71 0 0 0.71 -0.71 0 0 1.42 -0.71 0 0 1.42 -0.71 0 0 1.42 -0.71 0 0 0.71 -0.71 0 0 1.42 -0.71 0 0 1.42 -0.71 0 0 1.42 -0.71 0 0 0.71 -0.71 0 0 1.42 -0.71 0 0 1.42 -0.71 0 0 1.42 -0.71 0 0 0.71 -0.71 0 0 1.42 -0.71 0 0 1.42 -0.71 0 0 0.71 -0.71 0 0 1.42 -0.71 0 0 1.42 -0.71 0 0 1.42 -0.71 0 0 0.71 -0.71 0 0 1.42 -0.71 0 0 1.42 -0.71 0 0 1.42 -0.71 0 0 0.71 -0.71 0 0 1.42 -0.71 0 0 1.42 -0.71 0 0 0.71 -0.71 0 0 1.42 -0.71 0 0 1.42 -0.71 0 0 1.42 -0.71 0 0 0.71 -0.71 0 0 1.42 -0.71 0 0 1.42 -0.71 0 0 1.42 -0.71 0 0 0.71 -0.71 0 0 1.42 -0.71 0 0 1.42 -0.71 0 0 1.42 -0.71 0 0 0.71 -0.71 0 0 1.42 -0.71 0 0 1.42 -0.71 0 0 0.71 -0.71 0 0 1.42 -0.71 0 0 1.42 -0.71 0 0 1.42 -0.71 0 0 0.71 -0.71 0 0 1.42 -0.71 0 0 1.42 -0.71 0 0 1.42 -0.71 0 0 0.71 -0.71 0 0 1.42 -0.71 0 0 1.42 -0.71 0 0 1.42 -0.71 0 0 0.71 -0.71 0 0 1.42 -0.71 0 0 1.42 -0.71 0 0 0.71 -0.71 0 0 1.42 -0.71 0 0 1.42 -0.71 0 0 1.42 -0.71 0 0 0.71 -0.71 0 0 2.13 56.02 0 0 -2.84 0.71 0 0 -5.67 0.71 0 0 -4.96 0.71 0 0 -4.26 0.71 0 0 -4.25 0.71 0 0 -3.55 0.71 0 0 -2.84 0.71 0 0 -3.55 0.71 0 0 -2.84 0.71 0 0 -2.13 0.71 0 0 -2.83 0.71 0 0 -2.13 0.71 0 0 -1.42 0.71 0 0 -1.42 0.71 0 0 -0.71 1.42 0 0 -0.71 1.42 0 0 -0.71 1.42 0 0 -0.71 2.13 0 0 -0.71 1.42 0 0 -0.71 2.13 0 0 -0.71 2.13 0 0 -0.71 2.13 0 0 -0.71 2.13 0 0 -0.71 2.13 0 0 -0.71 2.13 0 0 -0.71 2.84 0 0 -0.71 2.13 0 0 -0.71 2.13 0 0 -0.71 2.13 0 0 -0.71 2.13 0 0 -0.71 2.13 0 0 -0.71 2.13 0 0 -0.71 2.13 0 0 -0.71 1.42 0 0 -0.71 2.13 0 0 -0.71 1.42 0 0 -0.71 2.13 0 0 -0.71 1.42 0 0 -0.71 1.42 0 0 -0.71 1.42 0 0 -0.71 1.42 0 0 -0.71 1.42 0 0 -0.71 1.42 0 0 -0.71 0.71 0 0 -0.71 0.71 0 0 -0.71 0.71 0 0 -0.71 0.71 0 0 -0.71 0.71 0 0 -0.71 0.71 0 0 -3.55 0.71 0 0 -2.84 0.71 0 0 -2.13 0.71 0 0 -1.42 0.71 0 0 -1.42 0.71 0 0 -1.42 0.71 0 0 -1.42 0.71 0 0 -0.71 0.71 0 0 -1.42 0.71 0 0 -1.42 0.71 0 0 -0.71 0.71 0 0 -1.42 0.71 0 0 -0.71 0.71 0 0 -1.42 0.71 0 0 -0.71 0.71 0 0 -0.71 0.71 0 0 -1.42 0.71 0 0 -0.71 0.71 0 0 -0.71 0.71 0 0 -1.42 0.71 0 0 -0.71 0.71 0 0 -0.71 0.71 0 0 -0.71 0.71 0 0 -1.42 0.71 0 0 -0.71 0.71 0 0 -0.71 0.71 0 0 -0.71 0.71 0 0 -0.71 0.71 0 0 -1.42 0.71 0 0 -0.71 0.71 0 0 -0.71 0.71 0 0 -0.71 0.71 0 0 -0.71 0.71 0 0 -0.71 0.71 0 0 -0.71 0.71 0 0 -0.71 0.71 0 0 -0.71 0.71 0 0 -0.71 0.71 0 0 -0.71 0.71 0 0 -0.71 0.71 0 0 -0.71 0.71 0 0 -0.71 0.71 0 0 -1.42 -2.13 0 0 0.71 -2.13 0 0 0.71 -2.84 0 0 0.71 -2.13 0 0 0.71 -2.13 0 0 0.71 -2.13 0 0 0.71 -2.13 0 0 0.71 -2.13 0 0 0.71 -2.13 0 0 0.71 -1.42 0 0 0.71 -2.13 0 0 0.71 -2.13 0 0 0.71 -1.42 0 0 0.71 -2.13 0 0 0.71 -1.42 0 0 0.71 -2.13 0 0 0.71 -1.42 0 0 0.71 -2.13 0 0 0.71 -1.42 0 0 0.71 -2.13 0 0 0.71 -1.42 0 0 0.71 -1.42 0 0 0.71 -1.42 0 0 0.71 -2.13 0 0 0.71 -1.42 0 0 0.71 -1.42 0 0 0.71 -1.42 0 0 0.71 -1.42 0 0 0.71 -1.42 0 0 0.71 -1.42 0 0 0.71 -1.42 0 0 0.71 -1.42 0 0 0.71 -1.42 0 0 0.71 -1.42 0 0 0.71 -1.42 0 0 0.71 -0.71 0 0 0.71 -1.42 0 0 0.71 -1.42 0 0 0.71 -0.71 0 0 0.71 -1.42 0 0 0.71 -0.71 0 0 0.71 -1.42 0 0 0.71 -0.71 0 0 0.71 -0.71 0 0 0.71 -1.42 0 0 0.71 -0.71 0 0 0.71 -0.71 0 0 0.71 -0.71 0 0 1.42 -0.71 0 0 1.42 -0.71 0 0 4.26 0.71 0 0 2.13 0.71 0 0 0.71 0.71 0 0 0.71 0.71 0 0 0.71 0.71 0 0 0.71 0.71 0 0 0.71 0.71 0 0 0.71 0.71 0 0 0.71 1.42 0 0 0.71 0.71 0 0 0.71 1.42 0 0 0.71 1.42 0 0 0.71 1.42 0 0 0.71 1.42 0 0 0.71 1.42 0 0 0.71 1.42 0 0 0.71 1.42 0 0 0.71 2.13 0 0 0.71 -1.42 0 0 0.71 -2.13 0 0 0.71 -2.13 0 0 0.71 -2.13 0 0 0.71 -1.42 0 0 -0.71 -1.42 0 0 -0.71 -1.42 0 0 -0.71 -1.42 0 0 -0.71 -1.42 0 0 -0.71 -1.42 0 0 -0.71 -1.42 0 0 -0.71 -0.71 0 0 -0.71 -1.42 0 0 -0.71 -0.71 0 0 -0.71 -0.71 0 0 -0.71 -0.71 0 0 -0.71 -0.71 0 0 -0.71 -0.71 0 0 -0.71 -0.71 0 0 -0.71 -0.71 0 0 -0.71 -0.71 0 0 -0.71 -0.71 0 0 -1.42 -0.71 0 0 -1.42 -0.71 0 0 -2.84 -0.71 0 0 -4.26 0.71 0 0 -2.84 0.71 0 0 -1.42 0.71 0 0 -1.42 0.71 0 0 -0.71 0.71 0 0 -1.42 0.71 0 0 -0.71 0.71 0 0 -0.71 0.71 0 0 -0.71 0.71 0 0 -0.71 0.71 0 0 -0.71 0.71 0 0 -0.71 0.71 0 0 -0.71 0.71 0 0 -0.71 0.71 0 0 -0.71 1.42 0 0 -0.71 0.71 0 0 -0.71 0.71 0 0 -0.71 1.42 0 0 -0.71 0.71 0 0 -0.71 1.42 0 0 -0.71 0.71 0 0 -0.71 1.42 0 0 -0.71 1.42 0 0 -0.71 0.71 0 0 -0.71 1.42 0 0 -0.71 1.42 0 0 -0.71 0.71 0 0 -0.71 1.42 0 0 -0.71 1.42 0 0 -0.71 1.42 0 0 -0.71 1.42 0 0 -0.71 1.42 0 0 -0.71 1.42 0 0 -0.71 1.42 0 0 -0.71 1.42 0 0 -0.71 1.42 0 0 -0.71 1.42 0 0 -0.71 1.42 0 0 -0.71 1.42 0 0 -0.71 2.13 0 0 -0.71 1.42 0 0 -0.71 1.42 0 0 -0.71 1.42 0 0 -0.71 1.42 0 0 -0.71 2.13 0 0 -0.71 1.42 0 0 -0.71 1.42 0 0 -0.71 2.13 0 0 -0.71 1.42 0 0 -0.71 1.42 0 0 -0.71 2.13 0 0 -0.71 1.42 0 0 -0.71 2.13 0 0 -0.71 1.42 0 0 -0.71 1.42 0 0 -0.71 2.13 0 0 -0.71 1.42 0 0 -0.71 2.13 0 0 -0.71 2.13 0 0 -0.71 1.42 0 0 -0.71 2.13 0 0 -0.71 1.42 0 0 -0.71 2.13 0 0 -0.71 2.13 0 0 -0.71 1.42 0 0 -0.71 2.13 0 0 -0.71 2.13 0 0 -0.71 1.42 0 0 -0.71 2.13 0 0 -0.71 2.13 0 0 -0.71 2.13 0 0 -0.71 2.13 0 0 -0.71 2.13 0 0 -0.71 2.13 0 0 -0.71 2.13 0 0 -0.71 2.13 0 0 -0.71 2.13 0 0 -0.71 2.13 0 0 -0.71 2.13 0 0 -0.71 2.13 0 0 -0.71 2.13 0 0 -0.71 2.13 0 0 -0.71 2.84 0 0 -0.71 2.84 0 0 -0.71 2.84 0 0 -0.71 4.26 0 0 -0.71 3.54 0 0 -0.71 4.26 0 0 -0.71 4.97 0 0 -0.71 4.96 0 0 -0.71 4.96 0 0 -0.71 4.26 0 0 -0.71 4.97 0 0 -0.71 4.96 0 0 -0.71 4.26 0 0 -0.71 4.25 0 0 -0.71 4.26 0 0 -0.71 4.26 0 0 -0.71 3.54 0 0 -0.71 3.55 0 0 -0.71 2.84 0 0 -0.71 2.84 0 0 -0.71 2.83 0 0 -0.71 2.84 0 0 -0.71 2.84 0 0 -0.71 2.13 0 0 -0.71 2.13 0 0 -0.71 2.83 0 0 -0.71 1.42 0 0 -0.71 2.13 0 0 -0.71 2.13 0 0 -0.71 1.42 0 0 -0.71 2.13 0 0 -0.71 1.42 0 0 -0.71 1.42 0 0 -0.71 1.42 0 0 -0.71 1.42 0 0 -0.71 1.42 0 0 -0.71 0.71 0 0 -0.71 1.42 0 0 -0.71 1.42 0 0 -0.71 0.71 0 0 -0.71 1.42 0 0 -0.71 0.71 0 0 -0.71 0.71 0 0 -0.71 1.42 0 0 -0.71 0.71 0 0 -0.71 0.71 0 0 -0.71 0.71 0 0 -0.71 0.71 0 0 -0.71 0.71 0 0 -0.71 0.71 0 0 -0.71 0.71 0 0 -1.42 0.71 0 0 -0.71 0.71 0 0 -0.71 0.71 0 0 -1.42 0.71 0 0 -1.42 0.71 0 0 -1.42z"/>
   <path class="fil0 str0" d="M205.71 475.2l0.71 0 0 -0.71 0.71 0 0 -0.71 0.71 0 0 -0.71 0.71 0 0 -0.71 0.71 0 0 -0.71 0.71 0 0 -0.71 25.53 0 0 0.71 10.64 0 0 0.71 4.26 0 0 0.71 3.55 0 0 0.71 2.84 0 0 0.71 2.84 0 0 0.71 2.13 0 0 0.71 2.84 0 0 0.71 1.42 0 0 0.71 2.13 0 0 0.71 2.13 0 0 0.71 1.42 0 0 0.71 1.42 0 0 0.71 1.42 0 0 0.71 1.42 0 0 0.71 1.42 0 0 0.71 1.42 0 0 0.71 0.71 0 0 0.71 1.42 0 0 0.71 0.71 0 0 0.71 0.71 0 0 0.71 1.42 0 0 0.71 0.71 0 0 0.71 0.71 0 0 0.71 1.42 0 0 0.71 0.71 0 0 0.71 0.71 0 0 0.71 0.71 0 0 0.71 0.71 0 0 0.71 0.71 0 0 0.71 0.71 0 0 0.71 0.71 0 0 0.71 0.71 0 0 0.71 0.71 0 0 0.71 0.71 0 0 0.71 0.71 0 0 0.71 0.71 0 0 1.42 -0.71 0 0 -0.71 -2.84 0 0 -0.71 -8.51 0 0 0.71 -4.26 0 0 0.71 -4.97 0 0 0.71 -4.25 0 0 -0.71 -2.13 0 0 -0.71 -1.42 0 0 -0.71 -1.42 0 0 -0.71 -0.71 0 0 -0.71 -1.42 0 0 -0.71 -0.71 0 0 -0.71 -0.71 0 0 -0.71 -0.71 0 0 -0.71 -1.42 0 0 -0.71 -0.71 0 0 -0.71 -0.71 0 0 -0.71 -0.71 0 0 -0.71 -0.71 0 0 -0.71 -0.71 0 0 -0.71 -0.71 0 0 -0.71 -0.71 0 0 -0.71 -0.71 0 0 -0.71 -1.42 0 0 -0.71 -0.71 0 0 -0.71 -0.71 0 0 -0.71 -1.42 0 0 -0.71 -0.71 0 0 -0.71 -1.42 0 0 -0.71 -1.42 0 0 -0.71 -2.13 0 0 -0.71 -2.84 0 0 -0.71 -4.25 0 0 -0.71 -4.26 0 0 -0.71 -6.38 0 0 -0.71 -8.51 0 0 -0.71 -11.35 0 0 -1.42zm32.62 -41.84l-9.22 0 0 0.71 -5.67 0 0 0.71 -3.55 0 0 0.71 -2.13 0 0 0.71 -1.42 0 0 0.71 -2.13 0 0 0.71 -1.42 0 0 0.71 -1.42 0 0 0.71 -1.42 0 0 0.71 -0.71 0 0 0.71 -1.42 0 0 0.71 -1.42 0 0 0.71 -0.71 0 0 0.71 -1.42 0 0 0.71 -0.71 0 0 0.71 -0.71 0 0 0.71 -1.42 0 0 0.71 -0.71 0 0 0.71 -1.42 0 0 0.71 -0.71 0 0 0.71 -0.71 0 0 0.71 -0.71 0 0 0.71 -1.42 0 0 0.71 -0.71 0 0 0.71 -0.71 0 0 0.71 -0.71 0 0 0.71 -0.71 0 0 0.71 -1.42 0 0 0.71 -0.71 0 0 0.71 -0.71 0 0 0.71 -0.71 0 0 0.71 -0.71 0 0 0.71 -0.71 0 0 0.71 -1.42 0 0 0.71 -0.71 0 0 0.71 -0.71 0 0 0.71 -0.71 0 0 0.71 -0.71 0 0 0.71 -0.71 0 0 0.71 -1.42 0 0 0.71 -0.71 0 0 0.71 -0.71 0 0 0.71 -0.71 0 0 0.71 -0.71 0 0 0.71 -0.71 0 0 0.71 -1.42 0 0 0.71 -0.71 0 0 0.71 -0.71 0 0 0.71 -0.71 0 0 0.71 -0.71 0 0 0.71 -1.42 0 0 0.71 -0.71 0 0 0.71 -0.71 0 0 0.71 -0.71 0 0 0.71 -1.42 0 0 0.71 -0.71 0 0 0.71 -0.71 0 0 0.71 -1.42 0 0 0.71 -0.71 0 0 0.71 -0.71 0 0 0.71 -1.42 0 0 0.71 -0.71 0 0 0.71 -1.42 0 0 0.71 -1.42 0 0 0.71 -0.71 0 0 0.71 -1.42 0 0 0.71 -1.42 0 0 0.71 -0.71 0 0 0.71 -1.42 0 0 0.71 -1.42 0 0 0.71 -2.13 0 0 0.71 -1.42 0 0 0.71 -2.13 0 0 0.71 -2.13 0 0 0.71 -4.26 0 0 0.71 -20.56 0 0 0.71 -7.8 0 0 0.71 -4.26 0 0 0.71 -2.83 0 0 0.71 -2.13 0 0 0.71 -2.13 0 0 0.71 -1.42 0 0 0.71 -1.42 0 0 0.71 -1.42 0 0 0.71 -1.42 0 0 0.71 -1.42 0 0 0.71 -0.71 0 0 0.71 -0.71 0 0 0.71 -1.42 0 0 0.71 -0.71 0 0 0.71 -0.71 0 0 0.71 -0.71 0 0 0.71 -0.71 0 0 0.71 -0.71 0 0 0.71 -0.71 0 0 0.71 -0.71 0 0 1.42 -0.71 0 0 0.71 -0.71 0 0 1.42 -0.71 0 0 0.71 -0.71 0 0 1.42 -0.71 0 0 0.71 -0.71 0 0 1.42 -0.71 0 0 1.42 -0.71 0 0 1.42 -0.71 0 0 2.13 -0.71 0 0 2.13 -0.71 0 0 6.38 66.66 0 0 -16.31 0.71 0 0 -7.8 0.71 0 0 -4.25 0.71 0 0 -2.13 1.42 0 0 -0.71 2.13 0 0 -0.71 1.42 0 0 -0.71 2.13 0 0 -0.71 1.42 0 0 -0.71 1.42 0 0 -0.71 1.42 0 0 -0.71 1.42 0 0 -0.71 0.71 0 0 -0.71 1.42 0 0 -0.71 1.42 0 0 -0.71 0.71 0 0 -0.71 1.42 0 0 -0.71 0.71 0 0 -0.71 0.71 0 0 -0.71 1.42 0 0 -0.71 0.71 0 0 -0.71 1.42 0 0 -0.71 0.71 0 0 -0.71 0.71 0 0 -0.71 0.71 0 0 -0.71 1.42 0 0 -0.71 0.71 0 0 -0.71 0.71 0 0 -0.71 0.71 0 0 -0.71 1.42 0 0 -0.71 0.71 0 0 -0.71 0.71 0 0 -0.71 0.71 0 0 -0.71 0.71 0 0 -0.71 0.71 0 0 -0.71 0.71 0 0 -0.71 1.42 0 0 -0.71 0.71 0 0 -0.71 0.71 0 0 -0.71 0.71 0 0 -0.71 0.71 0 0 -0.71 0.71 0 0 -0.71 0.71 0 0 -0.71 0.71 0 0 -0.71 0.71 0 0 -0.71 0.71 0 0 -0.71 0.71 0 0 -0.71 0.71 0 0 -0.71 0.71 0 0 -0.71 1.42 0 0 -0.71 0.71 0 0 -0.71 0.71 0 0 -0.71 0.71 0 0 -0.71 0.71 0 0 -0.71 0.71 0 0 -0.71 0.71 0 0 -0.71 0.71 0 0 -0.71 0.71 0 0 -0.71 0.71 0 0 -0.71 0.71 0 0 -0.71 1.42 0 0 -0.71 0.71 0 0 -0.71 0.71 0 0 -0.71 0.71 0 0 -0.71 0.71 0 0 -0.71 0.71 0 0 -0.71 1.42 0 0 -0.71 0.71 0 0 -0.71 0.71 0 0 -0.71 1.42 0 0 -0.71 0.71 0 0 -0.71 1.42 0 0 -0.71 0.71 0 0 -0.71 1.42 0 0 -0.71 1.42 0 0 -0.71 1.42 0 0 -0.71 1.42 0 0 -0.71 2.13 0 0 3.55 -0.71 0 0 2.84 -0.71 0 0 2.13 -0.71 0 0 1.42 -0.71 0 0 1.42 -0.71 0 0 2.13 -0.71 0 0 1.42 -0.71 0 0 1.42 -0.71 0 0 0.71 -0.71 0 0 1.42 -0.71 0 0 1.42 -0.71 0 0 0.71 -0.71 0 0 1.42 -0.71 0 0 0.71 -0.71 0 0 1.42 -0.71 0 0 0.71 -0.71 0 0 1.42 -0.71 0 0 0.71 -0.71 0 0 0.71 -0.71 0 0 1.42 -0.71 0 0 0.71 -0.71 0 0 0.71 -0.71 0 0 0.71 -0.71 0 0 1.42 -0.71 0 0 0.71 -0.71 0 0 0.71 -0.71 0 0 0.71 -0.71 0 0 0.71 -0.71 0 0 0.71 -0.71 0 0 0.71 -0.71 0 0 0.71 -0.71 0 0 0.71 -1.42 0 0 0.71 -0.71 0 0 0.71 -1.42 0 0 0.71 -0.71 0 0 0.71 -1.42 0 0 0.71 -1.42 0 0 0.71 -2.13 0 0 0.71 -1.42 0 0 0.71 -2.84 0 0 0.71 -2.13 0 0 0.71 -2.13 0 0 0.71 -2.13 0 0 0.71 -1.42 0 0 0.71 -2.13 0 0 0.71 -0.71 0 0 0.71 -1.42 0 0 0.71 -0.71 0 0 0.71 -0.71 0 0 0.71 -0.71 0 0 0.71 -0.71 0 0 0.71 -0.71 0 0 0.71 -0.71 0 0 1.42 -0.71 0 0 0.71 -0.71 0 0 1.42 -0.71 0 0 1.42 -0.71 0 0 1.42 -0.71 0 0 1.42 -0.71 0 0 2.84 -0.71 0 0 2.84 -0.71 0 0 13.47 0.71 0 0 2.13 132.61 0 0 -2.13 1.42 0 0 -0.71 0.71 0 0 -0.71 0.71 0 0 -0.71 0.71 0 0 -1.42 0.71 0 0 -0.71 0.71 0 0 -1.42 0.71 0 0 -1.42 0.71 0 0 -1.42 0.71 0 0 -2.13 0.71 0 0 -2.13 0.71 0 0 -2.84 0.71 0 0 -3.54 0.71 0 0 -4.97 0.71 0 0 -7.09 0.71 0 0 -17.73 -0.71 0 0 -5.67 -0.71 0 0 -4.26 -0.71 0 0 -2.84 -0.71 0 0 -2.84 -0.71 0 0 -2.13 -0.71 0 0 -2.13 -0.71 0 0 -1.42 -0.71 0 0 -1.42 -0.71 0 0 -0.71 -0.71 0 0 -1.42 -0.71 0 0 -0.71 -0.71 0 0 -0.71 -0.71 0 0 -0.71 -1.42 0 0 -0.71 -1.42 0 0 -0.71 -2.13 0 0 -0.71 -11.35 0 0 0.71 -6.38 0 0 0.71 -9.93 0 0 -0.71 -4.26 0 0 -0.71 -2.83 0 0 -0.71 -2.84 0 0 -0.71 -1.42 0 0 -0.71 -2.13 0 0 -0.71 -1.42 0 0 -0.71 -1.42 0 0 -0.71 -1.42 0 0 -0.71 -1.42 0 0 -0.71 -0.71 0 0 -0.71 -1.42 0 0 -0.71 -0.71 0 0 -0.71 -1.42 0 0 -0.71 -0.71 0 0 -0.71 -2.84 0 0 0.71z"/>
   <polygon class="fil0 str0" points="396.48,297.19 397.19,297.19 397.19,299.32 397.9,299.32 397.9,300.03 398.61,300.03 398.61,300.74 399.31,300.74 399.31,301.45 400.73,301.45 400.73,302.16 402.86,302.16 402.86,302.87 404.99,302.87 404.99,302.16 407.83,302.16 407.83,301.45 409.24,301.45 409.24,300.74 409.95,300.74 409.95,300.03 410.66,300.03 410.66,299.32 409.95,299.32 409.95,298.61 407.12,298.61 407.12,297.9 405.7,297.9 405.7,297.19 404.99,297.19 404.99,296.49 403.57,296.49 403.57,295.78 402.86,295.78 402.86,295.07 402.15,295.07 402.15,294.36 400.73,294.36 400.73,293.65 399.31,293.65 399.31,292.94 396.48,292.94 "/>
   <polygon class="fil0 str0" points="350.38,361.73 351.09,361.73 351.09,360.31 350.38,360.31 "/>
   <polygon class="fil0 str0" points="319.89,336.91 320.6,336.91 320.6,336.2 319.89,336.2 "/>
  </g>
 </g>
</svg>
