<svg width="602.9" height="522.76" xmlns="http://www.w3.org/2000/svg" clip-rule="evenodd" version="1.1" xml:space="preserve">

 <g>
  <title>Layer 1</title>
  <g id="Camada_x0020_1">
   <metadata id="CorelCorpID_0Corel-Layer"/>
   <g id="_1813607155968">
    <path id="svg_1" fill="#1AFF15" stroke-miterlimit="22.9256" stroke-width="1.53" stroke="#373435" d="m216.35,357.47l-0.71,0l0,-0.71l0.71,0l0,0.71zm103.54,-20.57l-0.71,0l0,0.71l-0.71,0l0,0.71l-0.71,0l0,0.71l-0.71,0l0,0.71l-1.42,0l0,0.71l-0.71,0l0,0.71l-0.71,0l0,0.71l-1.42,0l0,0.71l-0.71,0l0,0.71l-1.42,0l0,0.71l-0.71,0l0,0.71l-1.42,0l0,0.71l-1.42,0l0,0.71l-1.42,0l0,0.71l-1.42,0l0,0.71l-1.42,0l0,0.71l-1.42,0l0,0.71l-1.42,0l0,0.71l-1.42,0l0,0.71l-1.42,0l0,0.71l-1.42,0l0,0.71l-2.13,0l0,0.71l-1.42,0l0,0.71l-2.13,0l0,0.71l-1.42,0l0,0.71l-2.13,0l0,0.71l-2.13,0l0,0.71l-2.13,0l0,0.71l-2.13,0l0,0.71l-2.13,0l0,0.71l-2.13,0l0,0.71l-2.13,0l0,0.71l-2.83,0l0,0.71l-2.84,0l0,0.71l-2.84,0l0,0.71l-2.84,0l0,0.71l-3.55,0l0,0.71l-4.25,0l0,0.71l-5.67,0l0,0.71l-19.15,0l0,-0.71l-3.55,0l0,-0.71l-2.13,0l0,-0.71l-2.13,0l0,-0.71l-1.42,0l0,-0.71l-0.71,0l0,-0.71l-1.42,0l0,-0.71l-0.71,0l0,-0.71l-0.71,0l0,-0.71l-0.71,0l0,-0.71l1.42,0l0,0.71l2.83,0l0,0.71l7.8,0l0,-0.71l3.55,0l0,-0.71l1.42,0l0,-0.71l2.13,0l0,-0.71l1.42,0l0,-0.71l0.71,0l0,-0.71l1.42,0l0,-0.71l0.71,0l0,-0.71l1.42,0l0,-0.71l0.71,0l0,-0.71l0.71,0l0,-0.71l0.71,0l0,-0.71l0.71,0l0,-1.42l-0.71,0l0,-0.71l-0.71,0l0,-0.71l-1.42,0l0,-0.71l-0.71,0l0,-0.71l-0.71,0l0,-0.71l-0.71,0l0,-0.71l-0.71,0l0,-1.42l-0.71,0l0,-0.71l-0.71,0l0,-0.71l-0.71,0l0,-1.42l-0.71,0l0,-0.71l-0.71,0l0,-1.42l-0.71,0l0,-1.42l-0.71,0l0,-1.42l-0.71,0l0,-2.13l-0.71,0l0,-1.42l-0.71,0l0,-2.13l-0.71,0l0,-2.84l-0.71,0l0,-3.55l-0.71,0l0,-15.6l1.42,0l0,0.71l2.13,0l0,0.71l12.06,0l0,-0.71l4.25,0l0,-0.71l3.55,0l0,-0.71l3.55,0l0,-0.71l3.55,0l0,-0.71l4.97,0l0,-0.71l7.09,0l0,-0.71l-0.71,0l0,-1.42l-0.71,0l0,-0.71l-0.71,0l0,-1.42l-0.71,0l0,-1.42l-0.71,0l0,-0.71l-0.71,0l0,-1.42l-0.71,0l0,-1.42l-0.71,0l0,-1.42l-0.71,0l0,-0.71l-0.71,0l0,-1.42l-0.71,0l0,-1.42l-0.71,0l0,-2.13l-0.71,0l0,-1.42l-0.71,0l0,-2.13l-0.71,0l0,-2.13l-0.71,0l0,-2.13l-0.71,0l0,-3.55l-0.71,0l0,-9.22l0.71,0l0,-1.42l0.71,0l0,0.71l0.71,0l0,0.71l0.71,0l0,0.71l3.55,0l0,-0.71l2.13,0l0,-0.71l1.42,0l0,-0.71l1.42,0l0,-0.71l1.42,0l0,-0.71l1.42,0l0,-0.71l1.42,0l0,-0.71l0.71,0l0,-0.71l1.42,0l0,-0.71l1.42,0l0,-0.71l0.71,0l0,-0.71l1.42,0l0,-0.71l1.42,0l0,-0.71l1.42,0l0,-0.71l0.71,0l0,-0.71l1.42,0l0,-0.71l1.42,0l0,-0.71l1.42,0l0,-0.71l1.42,0l0,-0.71l1.42,0l0,-0.71l1.42,0l0,-0.71l2.13,0l0,-0.71l1.42,0l0,-0.71l2.13,0l0,-0.71l2.13,0l0,-0.71l2.84,0l0,-0.71l2.84,0l0,-0.71l4.26,0l0,-0.71l11.35,0l0,0.71l3.55,0l0,-0.71l-0.71,0l0,-2.13l-0.71,0l0,-2.84l-0.71,0l0,-1.42l-0.71,0l0,-1.42l-0.71,0l0,-1.42l-0.71,0l0,-0.71l-0.71,0l0,-0.71l-0.71,0l0,-0.71l-0.71,0l0,-0.71l-0.71,0l0,-0.71l-0.71,0l0,-0.71l-0.71,0l0,-1.42l1.42,0l0,-0.71l1.42,0l0,-0.71l2.13,0l0,-0.71l2.13,0l0,-0.71l4.25,0l0,-0.71l5.67,0l0,0.71l4.97,0l0,0.71l2.84,0l0,0.71l2.13,0l0,0.71l2.13,0l0,0.71l2.13,0l0,0.71l1.42,0l0,0.71l1.42,0l0,0.71l2.13,0l0,0.71l1.42,0l0,0.71l1.42,0l0,0.71l1.42,0l0,0.71l1.42,0l0,0.71l1.42,0l0,0.71l1.42,0l0,0.71l1.42,0l0,0.71l1.42,0l0,0.71l1.42,0l0,0.71l2.13,0l0,0.71l1.42,0l0,0.71l1.42,0l0,0.71l2.13,0l0,0.71l1.42,0l0,0.71l2.13,0l0,0.71l2.84,0l0,0.71l2.84,0l0,0.71l4.96,0l0,0.71l6.38,0l0,-0.71l4.26,0l0,1.42l0.71,0l0,0.71l0.71,0l0,0.71l0.71,0l0,0.71l0.71,0l0,0.71l0.71,0l0,0.71l0.71,0l0,0.71l0.71,0l0,0.71l0.71,0l0,0.71l0.71,0l0,0.71l1.42,0l0,0.71l0.71,0l0,0.71l0.71,0l0,0.71l0.71,0l0,0.71l0.71,0l0,0.71l0.71,0l0,0.71l0.71,0l0,0.71l0.71,0l0,0.71l0.71,0l0,0.71l0.71,0l0,1.42l0.71,0l0,0.71l0.71,0l0,1.42l0.71,0l0,2.13l0.71,0l0,7.09l-0.71,0l0,1.42l-0.71,0l0,1.42l-0.71,0l0,1.42l-0.71,0l0,0.71l-0.71,0l0,0.71l-0.71,0l0,0.71l-0.71,0l0,0.71l0.71,0l0,0.71l1.42,0l0,0.71l1.42,0l0,0.71l0.71,0l0,0.71l1.42,0l0,0.71l0.71,0l0,1.42l0.71,0l0,0.71l0.71,0l0,1.42l0.71,0l0,0.71l0.71,0l0,1.42l0.71,0l0,1.42l0.71,0l0,1.42l0.71,0l0,1.42l0.71,0l0,0.71l0.71,0l0,0.71l0.71,0l0,1.42l0.71,0l0,0.71l0.71,0l0,0.71l0.71,0l0,0.71l0.71,0l0,0.71l0.71,0l0,0.71l1.42,0l0,0.71l0.71,0l0,0.71l0.71,0l0,0.71l1.42,0l0,0.71l0.71,0l0,0.71l1.42,0l0,0.71l0.71,0l0,0.71l1.42,0l0,0.71l1.42,0l0,0.71l0.71,0l0,0.71l1.42,0l0,0.71l1.42,0l0,0.71l1.42,0l0,0.71l1.42,0l0,0.71l1.42,0l0,0.71l0.71,0l0,0.71l-0.71,0l0,1.42l-0.71,0l0,0.71l-0.71,0l0,1.42l-0.71,0l0,0.71l-0.71,0l0,0.71l-0.71,0l0,0.71l-0.71,0l0,0.71l-0.71,0l0,0.71l-0.71,0l0,0.71l-0.71,0l0,1.42l-0.71,0l0,1.42l-0.71,0l0,1.42l-0.71,0l0,1.42l-0.71,0l0,1.42l-0.71,0l0,0.71l-0.71,0l0,0.71l-0.71,0l0,0.71l-0.71,0l0,0.71l-0.71,0l0,0.71l-0.71,0l0,0.71l-0.71,0l0,0.71l-1.42,0l0,0.71l-0.71,0l0,0.71l-1.42,0l0,0.71l-1.42,0l0,0.71l-2.13,0l0,0.71l-2.13,0l0,-1.42l0.71,0l0,-5.67l-0.71,0l0,-0.71l-0.71,0l0,-0.71l-0.71,0l0,-0.71l-0.71,0l0,-0.71l-0.71,0l0,-0.71l-0.71,0l0,-0.71l-1.42,0l0,-0.71l-0.71,0l0,-0.71l-0.71,0l0,-0.71l-1.42,0l0,-0.71l-1.42,0l0,-0.71l-0.71,0l0,-0.71l-1.42,0l0,-0.71l-1.42,0l0,-0.71l-1.42,0l0,-0.71l-2.13,0l0,-0.71l-2.84,0l0,0.71l-0.71,0l0,0.71l-0.71,0l0,1.42l-0.71,0l0,2.13l-0.71,0l0,7.09l0.71,0l0,2.13l0.71,0l0,1.42l0.71,0l0,0.71l0.71,0l0,0.71l0.71,0l0,0.71l0.71,0l0,0.71l0.71,0l0,0.71l0.71,0l0,0.71l0.71,0l0,0.71l0.71,0l0,0.71l0.71,0l0,0.71l1.42,0l0,0.71l1.42,0l0,0.71l2.13,0l0,0.71l2.84,0l0,0.71l-0.71,0l0,0.71l-0.71,0l0,0.71l-0.71,0l0,0.71l-0.71,0l0,0.71l-2.13,0l0,0.71l-0.71,0l0,1.42l-0.71,0l0,1.42l-0.71,0l0,0.71l-0.71,0l0,0.71l-0.71,0l0,0.71l-0.71,0l0,0.71l-1.42,0l0,0.71l-1.42,0l0,0.71l-1.42,0l0,-0.71l0.71,0l0,-4.25l-0.71,0l0,-2.84l-0.71,0l0,-1.42l-0.71,0l0,-1.42l-0.71,0l0,-0.71l-0.71,0l0,-0.71l-0.71,0l0,-0.71l-0.71,0l0,-0.71l-0.71,0l0,-0.71l-0.71,0l0,-0.71l-0.71,0l0,-0.71l-1.42,0l0,-0.71l-1.42,0l0,-0.71l-2.13,0l0,-0.71l-4.97,0l0,0.71l-1.42,0l0,0.71l-0.71,0l0,0.71l-0.71,0l0,0.71l-0.71,0l0,1.42l-0.71,0l0,2.13l-0.71,0l0,4.96l0.71,0l0,2.84l0.71,0l0,2.13l0.71,0l0,1.42l0.71,0l0,1.42l0.71,0l0,1.42l0.71,0l0,0.71l0.71,0l0,1.42l0.71,0l0,0.71l0.71,0l0,0.71l1.42,0l0,0.71l0.71,0l0,0.71l1.42,0l0,0.71l1.42,0l0,0.71l2.13,0l0,0.71l2.84,0l0,0.71l4.25,0l0,0.71l10.64,0l0,0.71l0.71,0l0,0.71l0.71,0l0,1.42l0.71,0l0,0.71l0.71,0l0,1.42l0.71,0l0,0.71l0.71,0l0,1.42l0.71,0l0,0.71l0.71,0l0,1.42l0.71,0l0,1.42l0.71,0l0,2.13l0.71,0l0,1.42l0.71,0l0,2.84l0.71,0l0,2.84l0.71,0l0,13.47l-0.71,0l0,2.84l-0.71,0l0,2.13l-0.71,0l0,1.42l-0.71,0l0,-9.22l-0.71,0l0,-4.26l-0.71,0l0,-2.13l-0.71,0l0,-2.13l-0.71,0l0,-1.42l-0.71,0l0,-0.71l-0.71,0l0,-1.42l-0.71,0l0,-0.71l-0.71,0l0,3.55l0.71,0l0,12.06l-0.71,0l0,4.26l-0.71,0l0,2.84l-0.71,0l0,2.84l-0.71,0l0,2.13l-0.71,0l0,2.13l-0.71,0l0,1.42l-0.71,0l0,1.42l-0.71,0l0,1.42l-0.71,0l0,1.42l-0.71,0l0,1.42l-0.71,0l0,1.42l-0.71,0l0,1.42l-0.71,0l0,0.71l-0.71,0l0,1.42l-0.71,0l0,0.71l-0.71,0l0,1.42l-0.71,0l0,0.71l-0.71,0l0,0.71l-0.71,0l0,0.71l-0.71,0l0,1.42l-0.71,0l0,0.71l-0.71,0l0,0.71l-1.42,0l0,0.71l-0.71,0l0,0.71l-0.71,0l0,0.71l-0.71,0l0,0.71l-1.42,0l0,0.71l-0.71,0l0,0.71l-1.42,0l0,0.71l-0.71,0l0,-2.84l0.71,0l0,-2.84l0.71,0l0,-11.35l-0.71,0l0,-3.55l-0.71,0l0,-2.13l-0.71,0l0,-2.13l-0.71,0l0,-2.13l-0.71,0l0,-1.42l-0.71,0l0,-0.71l-0.71,0l0,1.42l0.71,0l0,9.93l-0.71,0l0,4.26l-0.71,0l0,2.84l-0.71,0l0,1.42l-0.71,0l0,1.42l-0.71,0l0,1.42l-0.71,0l0,1.42l-0.71,0l0,0.71l-0.71,0l0,1.42l-0.71,0l0,0.71l-0.71,0l0,0.71l-0.71,0l0,0.71l-0.71,0l0,0.71l-1.42,0l0,0.71l-0.71,0l0,0.71l-1.42,0l0,0.71l-0.71,0l0,-1.42l0.71,0l0,-2.13l0.71,0l0,-11.35l-0.71,0l0,-2.84l-0.71,0l0,-2.13l-0.71,0l0,-1.42l-0.71,0l0,-1.42l-0.71,0l0,-2.13l-0.71,0l0,-1.42l-0.71,0l0,-0.71l-0.71,0l0,-1.42l-0.71,0l0,-1.42l-0.71,0l0,-1.42l-0.71,0l0,-0.71l-0.71,0l0,-1.42l-0.71,0l0,-1.42l-0.71,0l0,-0.71l-0.71,0l0,-1.42l-0.71,0l0,-0.71l-0.71,0l0,-1.42l-0.71,0l0,-0.71l-0.71,0l0,-1.42l-0.71,0l0,-0.71l-0.71,0l0,-1.42l-0.71,0l0,-1.42l-0.71,0l0,-0.71l-0.71,0l0,-1.42l-0.71,0l0,-1.42l-0.71,0l0,-0.71l-0.71,0l0,-1.42l-0.71,0l0,-1.42l-0.71,0l0,-1.42l-0.71,0l0,-1.42l-0.71,0l0,-1.42l-0.71,0l0,-2.13l-0.71,0l0,-2.13l-0.71,0l0,-2.13l-0.71,0l0,-3.55l-0.71,0l0,-9.22l0.71,0l0,-2.84l-0.71,0l0,1.42l-0.71,0l0,2.13l-0.71,0l0,3.55l-0.71,0l0,9.93l0.71,0l0,3.54l0.71,0l0,2.13l0.71,0l0,2.13l0.71,0l0,2.13l0.71,0l0,1.42l0.71,0l0,2.13l0.71,0l0,1.42l0.71,0l0,1.42l0.71,0l0,1.42l0.71,0l0,1.42l0.71,0l0,0.71l0.71,0l0,1.42l0.71,0l0,1.42l0.71,0l0,1.42l0.71,0l0,1.42l0.71,0l0,0.71l0.71,0l0,1.42l0.71,0l0,1.42l0.71,0l0,1.42l0.71,0l0,0.71l0.71,0l0,1.42l0.71,0l0,1.42l0.71,0l0,1.42l0.71,0l0,1.42l0.71,0l0,1.42l0.71,0l0,2.13l0.71,0l0,1.42l0.71,0l0,2.13l0.71,0l0,2.13l0.71,0l0,4.26l0.71,0l0,7.09l-0.71,0l0,2.84l-0.71,0l0,1.42l-0.71,0l0,1.42l-0.71,0l0,1.42l-0.71,0l0,0.71l-0.71,0l0,0.71l-0.71,0l0,0.71l-0.71,0l0,0.71l-1.42,0l0,0.71l-0.71,0l0,0.71l-1.42,0l0,0.71l-2.13,0l0,0.71l-2.84,0l0,1.42l-0.71,0l0,2.13l-0.71,0l0,1.42l-0.71,0l0,1.42l-0.71,0l0,1.42l-0.71,0l0,1.42l-0.71,0l0,1.42l-0.71,0l0,0.71l-0.71,0l0,1.42l-0.71,0l0,1.42l-0.71,0l0,1.42l-0.71,0l0,0.71l-0.71,0l0,1.42l-0.71,0l0,1.42l-0.71,0l0,0.71l-0.71,0l0,1.42l-0.71,0l0,0.71l-0.71,0l0,1.42l-0.71,0l0,0.71l-0.71,0l0,1.42l-0.71,0l0,0.71l-0.71,0l0,1.42l-0.71,0l0,0.71l-0.71,0l0,1.42l-0.71,0l0,0.71l-0.71,0l0,1.42l-0.71,0l0,0.71l-0.71,0l0,0.71l-0.71,0l0,1.42l-0.71,0l0,2.84l-0.71,0l0,2.84l-0.71,0l0,3.55l-0.71,0l0,3.55l-0.71,0l0,4.26l-0.71,0l0,4.25l-0.71,0l0,7.09l-0.71,0l0,9.93l4.25,0l0,-0.71l0.71,0l0,-1.42l-0.71,0l0,-2.13l0.71,0l0,-10.64l0.71,0l0,-4.96l0.71,0l0,-4.26l0.71,0l0,-3.54l0.71,0l0,-3.55l0.71,0l0,-2.84l0.71,0l0,-2.84l0.71,0l0,-0.71l0.71,0l0,-1.42l0.71,0l0,-0.71l0.71,0l0,-0.71l0.71,0l0,-1.42l0.71,0l0,-0.71l0.71,0l0,-1.42l0.71,0l0,-0.71l0.71,0l0,-1.42l0.71,0l0,-0.71l0.71,0l0,-1.42l0.71,0l0,-0.71l0.71,0l0,-1.42l0.71,0l0,-1.42l0.71,0l0,-0.71l0.71,0l0,-1.42l0.71,0l0,-0.71l0.71,0l0,-1.42l0.71,0l0,-1.42l0.71,0l0,-1.42l0.71,0l0,-0.71l0.71,0l0,-1.42l0.71,0l0,-1.42l0.71,0l0,-1.42l0.71,0l0,-1.42l0.71,0l0,-1.42l0.71,0l0,-1.42l0.71,0l0,-0.71l0.71,0l0,-0.71l2.13,0l0,-0.71l1.42,0l0,-0.71l1.42,0l0,-0.71l0.71,0l0,-0.71l1.42,0l0,-0.71l0.71,0l0,1.42l-0.71,0l0,2.13l-0.71,0l0,2.13l-0.71,0l0,2.13l-0.71,0l0,2.13l-0.71,0l0,2.13l-0.71,0l0,1.42l-0.71,0l0,2.13l-0.71,0l0,2.13l-0.71,0l0,1.42l-0.71,0l0,1.42l-0.71,0l0,2.13l-0.71,0l0,1.42l-0.71,0l0,1.42l-0.71,0l0,2.13l-0.71,0l0,1.42l-0.71,0l0,1.42l-0.71,0l0,1.42l-0.71,0l0,1.42l-0.71,0l0,0.71l-0.71,0l0,1.42l-0.71,0l0,0.71l-0.71,0l0,2.13l-0.71,0l0,23.4l0.71,0l0,7.09l0.71,0l0,3.55l0.71,0l0,0.71l248.92,0l0,-0.71l-0.71,0l0,-1.42l-0.71,0l0,-1.42l-0.71,0l0,-1.42l-0.71,0l0,-0.71l-0.71,0l0,-1.42l-0.71,0l0,-1.42l-0.71,0l0,-1.42l-0.71,0l0,-0.71l-0.71,0l0,-1.42l-0.71,0l0,-1.42l-0.71,0l0,-1.42l-0.71,0l0,-0.71l-0.71,0l0,-1.42l-0.71,0l0,-1.42l-0.71,0l0,-0.71l-0.71,0l0,-1.42l-0.71,0l0,-1.42l-0.71,0l0,-1.42l-0.71,0l0,-0.71l-0.71,0l0,-1.42l-0.71,0l0,-1.42l-0.71,0l0,-1.42l-0.71,0l0,-0.71l-0.71,0l0,-1.42l-0.71,0l0,-1.42l-0.71,0l0,-1.42l-0.71,0l0,-0.71l-0.71,0l0,-1.42l-0.71,0l0,-1.42l-0.71,0l0,-0.71l-0.71,0l0,-1.42l-0.71,0l0,-1.42l-0.71,0l0,-1.42l-0.71,0l0,-0.71l-0.71,0l0,-1.42l-0.71,0l0,-1.42l-0.71,0l0,-1.42l-0.71,0l0,-0.71l-0.71,0l0,-1.42l-0.71,0l0,-1.42l-0.71,0l0,-0.71l-0.71,0l0,-1.42l-0.71,0l0,-1.42l-0.71,0l0,-1.42l-0.71,0l0,-0.71l-0.71,0l0,-1.42l-0.71,0l0,-1.42l-0.71,0l0,-1.42l-0.71,0l0,-0.71l-0.71,0l0,-1.42l-0.71,0l0,-1.42l-0.71,0l0,-1.42l-0.71,0l0,-0.71l-0.71,0l0,-1.42l-0.71,0l0,-1.42l-0.71,0l0,-0.71l-0.71,0l0,-1.42l-0.71,0l0,-1.42l-0.71,0l0,-1.42l-0.71,0l0,-0.71l-0.71,0l0,-1.42l-0.71,0l0,-1.42l-0.71,0l0,-1.42l-0.71,0l0,-0.71l-0.71,0l0,-1.42l-0.71,0l0,-1.42l-0.71,0l0,-1.42l-0.71,0l0,-0.71l-0.71,0l0,-1.42l-0.71,0l0,-1.42l-0.71,0l0,-0.71l-0.71,0l0,-1.42l-0.71,0l0,-1.42l-0.71,0l0,-1.42l-0.71,0l0,-0.71l-0.71,0l0,-1.42l-0.71,0l0,-1.42l-0.71,0l0,-1.42l-0.71,0l0,-0.71l-0.71,0l0,-1.42l-0.71,0l0,-1.42l-0.71,0l0,-0.71l-0.71,0l0,-1.42l-0.71,0l0,-1.42l-0.71,0l0,-1.42l-0.71,0l0,-0.71l-0.71,0l0,-1.42l-0.71,0l0,-1.42l-0.71,0l0,-1.42l-0.71,0l0,-0.71l-0.71,0l0,-1.42l-0.71,0l0,-1.42l-0.71,0l0,-1.42l-0.71,0l0,-0.71l-0.71,0l0,-1.42l-0.71,0l0,-1.42l-0.71,0l0,-0.71l-0.71,0l0,-1.42l-0.71,0l0,-1.42l-0.71,0l0,-1.42l-0.71,0l0,-0.71l-0.71,0l0,-1.42l-0.71,0l0,-1.42l-0.71,0l0,-1.42l-0.71,0l0,-0.71l-0.71,0l0,-1.42l-0.71,0l0,-1.42l-0.71,0l0,-1.42l-0.71,0l0,-0.71l-0.71,0l0,-1.42l-0.71,0l0,-1.42l-0.71,0l0,-0.71l-0.71,0l0,-1.42l-0.71,0l0,-1.42l-0.71,0l0,-1.42l-0.71,0l0,-0.71l-0.71,0l0,-1.42l-0.71,0l0,-1.42l-0.71,0l0,-1.42l-0.71,0l0,-0.71l-0.71,0l0,-1.42l-0.71,0l0,-1.42l-0.71,0l0,-1.42l-0.71,0l0,-0.71l-0.71,0l0,-1.42l-0.71,0l0,-1.42l-0.71,0l0,-0.71l-0.71,0l0,-1.42l-0.71,0l0,-1.42l-0.71,0l0,-1.42l-0.71,0l0,-0.71l-0.71,0l0,-1.42l-0.71,0l0,-1.42l-0.71,0l0,-1.42l-0.71,0l0,-0.71l-0.71,0l0,-1.42l-0.71,0l0,-1.42l-0.71,0l0,-0.71l-0.71,0l0,-1.42l-0.71,0l0,-1.42l-0.71,0l0,-1.42l-0.71,0l0,-0.71l-0.71,0l0,-1.42l-0.71,0l0,-1.42l-0.71,0l0,-1.42l-0.71,0l0,-0.71l-0.71,0l0,-1.42l-0.71,0l0,-1.42l-0.71,0l0,-1.42l-0.71,0l0,-0.71l-0.71,0l0,-1.42l-0.71,0l0,-1.42l-0.71,0l0,-0.71l-0.71,0l0,-1.42l-0.71,0l0,-1.42l-0.71,0l0,-1.42l-0.71,0l0,-0.71l-0.71,0l0,-1.42l-0.71,0l0,-1.42l-0.71,0l0,-1.42l-0.71,0l0,-0.71l-0.71,0l0,-1.42l-0.71,0l0,-1.42l-0.71,0l0,-1.42l-0.71,0l0,-0.71l-0.71,0l0,-1.42l-0.71,0l0,-1.42l-0.71,0l0,-0.71l-0.71,0l0,-1.42l-0.71,0l0,-1.42l-0.71,0l0,-1.42l-0.71,0l0,-0.71l-0.71,0l0,-1.42l-0.71,0l0,-1.42l-0.71,0l0,-1.42l-0.71,0l0,-0.71l-0.71,0l0,-1.42l-0.71,0l0,-1.42l-0.71,0l0,-1.42l-0.71,0l0,-0.71l-0.71,0l0,-1.42l-0.71,0l0,-1.42l-0.71,0l0,-0.71l-0.71,0l0,-1.42l-0.71,0l0,-1.42l-0.71,0l0,-1.42l-0.71,0l0,-0.71l-0.71,0l0,-1.42l-0.71,0l0,-1.42l-0.71,0l0,-1.42l-0.71,0l0,-0.71l-0.71,0l0,-1.42l-0.71,0l0,-1.42l-0.71,0l0,-0.71l-0.71,0l0,-1.42l-0.71,0l0,-1.42l-0.71,0l0,-1.42l-0.71,0l0,-0.71l-0.71,0l0,-1.42l-0.71,0l0,-1.42l-0.71,0l0,-1.42l-0.71,0l0,-0.71l-0.71,0l0,-1.42l-0.71,0l0,-1.42l-0.71,0l0,-1.42l-0.71,0l0,-0.71l-0.71,0l0,-1.42l-0.71,0l0,-1.42l-0.71,0l0,-0.71l-0.71,0l0,-1.42l-0.71,0l0,-1.42l-0.71,0l0,-1.42l-0.71,0l0,-0.71l-0.71,0l0,-1.42l-0.71,0l0,-1.42l-0.71,0l0,-1.42l-0.71,0l0,-0.71l-0.71,0l0,-1.42l-0.71,0l0,-1.42l-0.71,0l0,-1.42l-0.71,0l0,-0.71l-0.71,0l0,-1.42l-0.71,0l0,-1.42l-0.71,0l0,-0.71l-0.71,0l0,-1.42l-0.71,0l0,-1.42l-0.71,0l0,-1.42l-0.71,0l0,-0.71l-0.71,0l0,-1.42l-0.71,0l0,-1.42l-0.71,0l0,-1.42l-0.71,0l0,-0.71l-0.71,0l0,-1.42l-0.71,0l0,-1.42l-0.71,0l0,-0.71l-0.71,0l0,-1.42l-0.71,0l0,-1.42l-0.71,0l0,-1.42l-0.71,0l0,-0.71l-0.71,0l0,-1.42l-0.71,0l0,-1.42l-0.71,0l0,-1.42l-0.71,0l0,-0.71l-0.71,0l0,-1.42l-0.71,0l0,-1.42l-0.71,0l0,-1.42l-0.71,0l0,-0.71l-0.71,0l0,-1.42l-0.71,0l0,-1.42l-0.71,0l0,-0.71l-0.71,0l0,-1.42l-0.71,0l0,-1.42l-0.71,0l0,-1.42l-0.71,0l0,-0.71l-0.71,0l0,-1.42l-0.71,0l0,-1.42l-0.71,0l0,-1.42l-0.71,0l0,-0.71l-0.71,0l0,-1.42l-0.71,0l0,-1.42l-0.71,0l0,-1.42l-0.71,0l0,-0.71l-0.71,0l0,-1.42l-0.71,0l0,-1.42l-0.71,0l0,-0.71l-0.71,0l0,-1.42l-0.71,0l0,-1.42l-0.71,0l0,-1.42l-0.71,0l0,-0.71l-0.71,0l0,-1.42l-0.71,0l0,-1.42l-0.71,0l0,-1.42l-0.71,0l0,-0.71l-0.71,0l0,-1.42l-0.71,0l0,-1.42l-0.71,0l0,-1.42l-0.71,0l0,-0.71l-0.71,0l0,-1.42l-0.71,0l0,-1.42l-0.71,0l0,-0.71l-0.71,0l0,-1.42l-0.71,0l0,-1.42l-0.71,0l0,-1.42l-0.71,0l0,-0.71l-0.71,0l0,-1.42l-0.71,0l0,-1.42l-0.71,0l0,-1.42l-0.71,0l0,-0.71l-0.71,0l0,-1.42l-0.71,0l0,-1.42l-0.71,0l0,-0.71l-0.71,0l0,-1.42l-0.71,0l0,-1.42l-0.71,0l0,-1.42l-0.71,0l0,-0.71l-0.71,0l0,-1.42l-0.71,0l0,-1.42l-0.71,0l0,-1.42l-0.71,0l0,-0.71l-0.71,0l0,-1.42l-0.71,0l0,-1.42l-0.71,0l0,-1.42l-0.71,0l0,-0.71l-0.71,0l0,-1.42l-0.71,0l0,-1.42l-0.71,0l0,-0.71l-0.71,0l0,-1.42l-0.71,0l0,-1.42l-0.71,0l0,-1.42l-0.71,0l0,-0.71l-0.71,0l0,-1.42l-0.71,0l0,-1.42l-0.71,0l0,-1.42l-0.71,0l0,-0.71l-0.71,0l0,-1.42l-0.71,0l0,-1.42l-0.71,0l0,-1.42l-0.71,0l0,-0.71l-0.71,0l0,-1.42l-0.71,0l0,-1.42l-0.71,0l0,-0.71l-0.71,0l0,-1.42l-0.71,0l0,-1.42l-0.71,0l0,-1.42l-0.71,0l0,-0.71l-0.71,0l0,-1.42l-0.71,0l0,-1.42l-0.71,0l0,-1.42l-0.71,0l0,-0.71l-0.71,0l0,-1.42l-0.71,0l0,-1.42l-0.71,0l0,-1.42l-0.71,0l0,-0.71l-0.71,0l0,-1.42l-0.71,0l0,-1.42l-0.71,0l0,-0.71l-0.71,0l0,-1.42l-0.71,0l0,-1.42l-0.71,0l0,-1.42l-0.71,0l0,-0.71l-0.71,0l0,-1.42l-0.71,0l0,-1.42l-0.71,0l0,-1.42l-0.71,0l0,-0.71l-0.71,0l0,-1.42l-0.71,0l0,-1.42l-0.71,0l0,-0.71l-0.71,0l0,-1.42l-0.71,0l0,-1.42l-0.71,0l0,-1.42l-0.71,0l0,-0.71l-0.71,0l0,-1.42l-0.71,0l0,-1.42l-0.71,0l0,-1.42l-0.71,0l0,-0.71l-0.71,0l0,-1.42l-0.71,0l0,-1.42l-0.71,0l0,-1.42l-0.71,0l0,-0.71l-0.71,0l0,-1.42l-0.71,0l0,-1.42l-0.71,0l0,-0.71l-0.71,0l0,-1.42l-0.71,0l0,-1.42l-0.71,0l0,-1.42l-0.71,0l0,-0.71l-0.71,0l0,-1.42l-0.71,0l0,-1.42l-0.71,0l0,-1.42l-0.71,0l0,-0.71l-0.71,0l0,-1.42l-0.71,0l0,-1.42l-0.71,0l0,-1.42l-0.71,0l0,-0.71l-0.71,0l0,-1.42l-0.71,0l0,-1.42l-0.71,0l0,-0.71l-0.71,0l0,-1.42l-0.71,0l0,-1.42l-0.71,0l0,-1.42l-0.71,0l0,-0.71l-0.71,0l0,-1.42l-0.71,0l0,-1.42l-0.71,0l0,-1.42l-0.71,0l0,-0.71l-0.71,0l0,-1.42l-0.71,0l0,-1.42l-0.71,0l0,-1.42l-0.71,0l0,-0.71l-0.71,0l0,-1.42l-0.71,0l0,-1.42l-0.71,0l0,-0.71l-0.71,0l0,-1.42l-0.71,0l0,-1.42l-0.71,0l0,-1.42l-0.71,0l0,-0.71l-0.71,0l0,-1.42l-0.71,0l0,-1.42l-0.71,0l0,-1.42l-0.71,0l0,-0.71l-0.71,0l0,-1.42l-0.71,0l0,-1.42l-0.71,0l0,-0.71l-0.71,0l0,-1.42l-0.71,0l0,-1.42l-0.71,0l0,-1.42l-0.71,0l0,-0.71l-0.71,0l0,-1.42l-0.71,0l0,-1.42l-0.71,0l0,-1.42l-0.71,0l0,-0.71l-0.71,0l0,-1.42l-0.71,0l0,-1.42l-0.71,0l0,-1.42l-0.71,0l0,-0.71l-0.71,0l0,-1.42l-0.71,0l0,-1.42l-0.71,0l0,-0.71l-0.71,0l0,-1.42l-0.71,0l0,-1.42l-0.71,0l0,-1.42l-0.71,0l0,-0.71l-0.71,0l0,-1.42l-0.71,0l0,-0.71l-0.71,0l0,0.71l-0.71,0l0,1.42l-0.71,0l0,1.42l-0.71,0l0,1.42l-0.71,0l0,0.71l-0.71,0l0,1.42l-0.71,0l0,1.42l-0.71,0l0,1.42l-0.71,0l0,0.71l-0.71,0l0,1.42l-0.71,0l0,1.42l-0.71,0l0,1.42l-0.71,0l0,0.71l-0.71,0l0,1.42l-0.71,0l0,1.42l-0.71,0l0,0.71l-0.71,0l0,1.42l-0.71,0l0,1.42l-0.71,0l0,1.42l-0.71,0l0,0.71l-0.71,0l0,1.42l-0.71,0l0,1.42l-0.71,0l0,1.42l-0.71,0l0,0.71l-0.71,0l0,1.42l-0.71,0l0,1.42l-0.71,0l0,0.71l-0.71,0l0,1.42l-0.71,0l0,1.42l-0.71,0l0,1.42l-0.71,0l0,0.71l-0.71,0l0,1.42l-0.71,0l0,1.42l-0.71,0l0,1.42l-0.71,0l0,0.71l-0.71,0l0,1.42l-0.71,0l0,1.42l-0.71,0l0,1.42l-0.71,0l0,0.71l-0.71,0l0,1.42l-0.71,0l0,1.42l-0.71,0l0,0.71l-0.71,0l0,1.42l-0.71,0l0,1.42l-0.71,0l0,1.42l-0.71,0l0,0.71l-0.71,0l0,1.42l-0.71,0l0,1.42l-0.71,0l0,1.42l-0.71,0l0,0.71l-0.71,0l0,1.42l-0.71,0l0,1.42l-0.71,0l0,1.42l-0.71,0l0,0.71l-0.71,0l0,1.42l-0.71,0l0,1.42l-0.71,0l0,0.71l-0.71,0l0,1.42l-0.71,0l0,1.42l-0.71,0l0,1.42l-0.71,0l0,0.71l-0.71,0l0,1.42l-0.71,0l0,1.42l-0.71,0l0,1.42l-0.71,0l0,0.71l-0.71,0l0,1.42l-0.71,0l0,1.42l-0.71,0l0,1.42l-0.71,0l0,0.71l-0.71,0l0,1.42l-0.71,0l0,1.42l-0.71,0l0,0.71l-0.71,0l0,1.42l-0.71,0l0,1.42l-0.71,0l0,1.42l-0.71,0l0,0.71l-0.71,0l0,1.42l-0.71,0l0,1.42l-0.71,0l0,1.42l-0.71,0l0,0.71l-0.71,0l0,1.42l-0.71,0l0,1.42l-0.71,0l0,0.71l-0.71,0l0,1.42l-0.71,0l0,1.42l-0.71,0l0,1.42l-0.71,0l0,0.71l-0.71,0l0,1.42l-0.71,0l0,1.42l-0.71,0l0,1.42l-0.71,0l0,0.71l-0.71,0l0,1.42l-0.71,0l0,1.42l-0.71,0l0,1.42l-0.71,0l0,0.71l-0.71,0l0,1.42l-0.71,0l0,1.42l-0.71,0l0,0.71l-0.71,0l0,1.42l-0.71,0l0,1.42l-0.71,0l0,1.42l-0.71,0l0,0.71l-0.71,0l0,1.42l-0.71,0l0,1.42l-0.71,0l0,1.42l-0.71,0l0,0.71l-0.71,0l0,1.42l-0.71,0l0,1.42l-0.71,0l0,1.42l-0.71,0l0,0.71l-0.71,0l0,1.42l-0.71,0l0,1.42l-0.71,0l0,0.71l-0.71,0l0,1.42l-0.71,0l0,1.42l-0.71,0l0,1.42l-0.71,0l0,0.71l-0.71,0l0,1.42l-0.71,0l0,1.42l-0.71,0l0,1.42l-0.71,0l0,0.71l-0.71,0l0,1.42l-0.71,0l0,1.42l-0.71,0l0,1.42l-0.71,0l0,0.71l-0.71,0l0,1.42l-0.71,0l0,1.42l-0.71,0l0,0.71l-0.71,0l0,1.42l-0.71,0l0,1.42l-0.71,0l0,1.42l-0.71,0l0,0.71l-0.71,0l0,1.42l-0.71,0l0,1.42l-0.71,0l0,1.42l-0.71,0l0,0.71l-0.71,0l0,1.42l-0.71,0l0,1.42l-0.71,0l0,0.71l-0.71,0l0,1.42l-0.71,0l0,1.42l-0.71,0l0,1.42l-0.71,0l0,0.71l-0.71,0l0,1.42l-0.71,0l0,1.42l-0.71,0l0,1.42l-0.71,0l0,0.71l-0.71,0l0,1.42l-0.71,0l0,1.42l-0.71,0l0,1.42l-0.71,0l0,0.71l-0.71,0l0,1.42l-0.71,0l0,1.42l-0.71,0l0,0.71l-0.71,0l0,1.42l-0.71,0l0,1.42l-0.71,0l0,1.42l-0.71,0l0,0.71l-0.71,0l0,1.42l-0.71,0l0,1.42l-0.71,0l0,1.42l-0.71,0l0,0.71l-0.71,0l0,1.42l-0.71,0l0,1.42l-0.71,0l0,1.42l-0.71,0l0,0.71l-0.71,0l0,1.42l-0.71,0l0,1.42l-0.71,0l0,0.71l-0.71,0l0,1.42l-0.71,0l0,1.42l-0.71,0l0,1.42l-0.71,0l0,0.71l-0.71,0l0,1.42l-0.71,0l0,1.42l-0.71,0l0,1.42l-0.71,0l0,0.71l-0.71,0l0,1.42l-0.71,0l0,1.42l-0.71,0l0,0.71l-0.71,0l0,1.42l-0.71,0l0,1.42l-0.71,0l0,1.42l-0.71,0l0,0.71l-0.71,0l0,1.42l-0.71,0l0,1.42l-0.71,0l0,1.42l-0.71,0l0,0.71l-0.71,0l0,1.42l-0.71,0l0,1.42l-0.71,0l0,1.42l-0.71,0l0,0.71l-0.71,0l0,1.42l-0.71,0l0,1.42l-0.71,0l0,0.71l-0.71,0l0,1.42l-0.71,0l0,1.42l-0.71,0l0,1.42l-0.71,0l0,0.71l-0.71,0l0,1.42l-0.71,0l0,1.42l-0.71,0l0,1.42l-0.71,0l0,0.71l-0.71,0l0,1.42l-0.71,0l0,1.42l-0.71,0l0,1.42l-0.71,0l0,0.71l-0.71,0l0,1.42l-0.71,0l0,1.42l-0.71,0l0,0.71l-0.71,0l0,1.42l-0.71,0l0,1.42l-0.71,0l0,1.42l-0.71,0l0,0.71l-0.71,0l0,1.42l-0.71,0l0,1.42l-0.71,0l0,1.42l-0.71,0l0,0.71l-0.71,0l0,1.42l-0.71,0l0,1.42l-0.71,0l0,1.42l-0.71,0l0,0.71l-0.71,0l0,1.42l-0.71,0l0,1.42l-0.71,0l0,0.71l-0.71,0l0,1.42l-0.71,0l0,1.42l-0.71,0l0,1.42l-0.71,0l0,0.71l-0.71,0l0,1.42l-0.71,0l0,1.42l-0.71,0l0,1.42l-0.71,0l0,0.71l-0.71,0l0,1.42l-0.71,0l0,1.42l-0.71,0l0,0.71l-0.71,0l0,1.42l-0.71,0l0,1.42l-0.71,0l0,1.42l-0.71,0l0,0.71l-0.71,0l0,1.42l-0.71,0l0,1.42l-0.71,0l0,1.42l-0.71,0l0,0.71l-0.71,0l0,1.42l-0.71,0l0,1.42l-0.71,0l0,1.42l-0.71,0l0,0.71l-0.71,0l0,1.42l-0.71,0l0,1.42l-0.71,0l0,0.71l-0.71,0l0,1.42l-0.71,0l0,1.42l-0.71,0l0,1.42l-0.71,0l0,0.71l-0.71,0l0,1.42l-0.71,0l0,1.42l-0.71,0l0,1.42l-0.71,0l0,0.71l-0.71,0l0,1.42l-0.71,0l0,1.42l-0.71,0l0,1.42l-0.71,0l0,0.71l-0.71,0l0,1.42l-0.71,0l0,1.42l-0.71,0l0,0.71l-0.71,0l0,1.42l-0.71,0l0,1.42l-0.71,0l0,1.42l-0.71,0l0,0.71l-0.71,0l0,1.42l-0.71,0l0,1.42l-0.71,0l0,1.42l-0.71,0l0,0.71l-0.71,0l0,1.42l-0.71,0l0,1.42l-0.71,0l0,1.42l-0.71,0l0,0.71l-0.71,0l0,1.42l-0.71,0l0,1.42l-0.71,0l0,0.71l-0.71,0l0,1.42l-0.71,0l0,1.42l-0.71,0l0,1.42l-0.71,0l0,0.71l-0.71,0l0,1.42l-0.71,0l0,1.42l-0.71,0l0,1.42l-0.71,0l0,0.71l-0.71,0l0,1.42l-0.71,0l0,1.42l-0.71,0l0,0.71l-0.71,0l0,1.42l-0.71,0l0,1.42l-0.71,0l0,1.42l-0.71,0l0,0.71l-0.71,0l0,1.42l-0.71,0l0,1.42l-0.71,0l0,1.42l-0.71,0l0,0.71l-0.71,0l0,1.42l-0.71,0l0,1.42l-0.71,0l0,1.42l-0.71,0l0,0.71l-0.71,0l0,1.42l-0.71,0l0,1.42l-0.71,0l0,0.71l-0.71,0l0,1.42l-0.71,0l0,1.42l-0.71,0l0,1.42l-0.71,0l0,0.71l-0.71,0l0,1.42l-0.71,0l0,1.42l-0.71,0l0,1.42l-0.71,0l0,0.71l-0.71,0l0,1.42l-0.71,0l0,1.42l-0.71,0l0,1.42l-0.71,0l0,0.71l-0.71,0l0,1.42l-0.71,0l0,1.42l-0.71,0l0,0.71l-0.71,0l0,1.42l-0.71,0l0,1.42l-0.71,0l0,1.42l-0.71,0l0,0.71l-0.71,0l0,1.42l-0.71,0l0,1.42l-0.71,0l0,1.42l-0.71,0l0,0.71l-0.71,0l0,1.42l-0.71,0l0,1.42l-0.71,0l0,0.71l-0.71,0l0,1.42l-0.71,0l0,1.42l-0.71,0l0,1.42l-0.71,0l0,0.71l-0.71,0l0,1.42l-0.71,0l0,1.42l-0.71,0l0,1.42l-0.71,0l0,0.71l-0.71,0l0,1.42l-0.71,0l0,1.42l-0.71,0l0,1.42l-0.71,0l0,0.71l-0.71,0l0,1.42l-0.71,0l0,1.42l-0.71,0l0,0.71l-0.71,0l0,1.42l-0.71,0l0,1.42l-0.71,0l0,1.42l-0.71,0l0,0.71l-0.71,0l0,1.42l-0.71,0l0,1.42l-0.71,0l0,1.42l-0.71,0l0,0.71l-0.71,0l0,1.42l-0.71,0l0,1.42l-0.71,0l0,1.42l-0.71,0l0,0.71l-0.71,0l0,1.42l-0.71,0l0,1.42l-0.71,0l0,0.71l-0.71,0l0,1.42l-0.71,0l0,1.42l-0.71,0l0,1.42l-0.71,0l0,0.71l-0.71,0l0,1.42l-0.71,0l0,1.42l-0.71,0l0,1.42l-0.71,0l0,0.71l-0.71,0l0,1.42l-0.71,0l0,1.42l-0.71,0l0,1.42l-0.71,0l0,0.71l-0.71,0l0,1.42l-0.71,0l0,1.42l-0.71,0l0,0.71l-0.71,0l0,1.42l-0.71,0l0,1.42l-0.71,0l0,1.42l-0.71,0l0,0.71l-0.71,0l0,1.42l-0.71,0l0,1.42l-0.71,0l0,1.42l-0.71,0l0,0.71l-0.71,0l0,1.42l-0.71,0l0,1.42l-0.71,0l0,0.71l-0.71,0l0,1.42l-0.71,0l0,1.42l-0.71,0l0,1.42l-0.71,0l0,0.71l-0.71,0l0,1.42l-0.71,0l0,1.42l-0.71,0l0,1.42l-0.71,0l0,0.71l-0.71,0l0,1.42l-0.71,0l0,1.42l-0.71,0l0,1.42l-0.71,0l0,0.71l-0.71,0l0,1.42l-0.71,0l0,1.42l-0.71,0l0,0.71l-0.71,0l0,1.42l-0.71,0l0,1.42l-0.71,0l0,1.42l-0.71,0l0,0.71l-0.71,0l0,1.42l-0.71,0l0,1.42l-0.71,0l0,1.42l-0.71,0l0,0.71l-0.71,0l0,1.42l-0.71,0l0,1.42l-0.71,0l0,1.42l-0.71,0l0,0.71l-0.71,0l0,1.42l-0.71,0l0,1.42l-0.71,0l0,0.71l-0.71,0l0,1.42l-0.71,0l0,1.42l-0.71,0l0,1.42l-0.71,0l0,0.71l-0.71,0l0,2.13l56.02,0l0,-2.84l0.71,0l0,-5.67l0.71,0l0,-4.96l0.71,0l0,-4.26l0.71,0l0,-4.25l0.71,0l0,-3.55l0.71,0l0,-2.84l0.71,0l0,-3.55l0.71,0l0,-2.84l0.71,0l0,-2.13l0.71,0l0,-2.83l0.71,0l0,-2.13l0.71,0l0,-1.42l0.71,0l0,-1.42l0.71,0l0,-0.71l1.42,0l0,-0.71l1.42,0l0,-0.71l1.42,0l0,-0.71l2.13,0l0,-0.71l1.42,0l0,-0.71l2.13,0l0,-0.71l2.13,0l0,-0.71l2.13,0l0,-0.71l2.13,0l0,-0.71l2.13,0l0,-0.71l2.13,0l0,-0.71l2.84,0l0,-0.71l2.13,0l0,-0.71l2.13,0l0,-0.71l2.13,0l0,-0.71l2.13,0l0,-0.71l2.13,0l0,-0.71l2.13,0l0,-0.71l2.13,0l0,-0.71l1.42,0l0,-0.71l2.13,0l0,-0.71l1.42,0l0,-0.71l2.13,0l0,-0.71l1.42,0l0,-0.71l1.42,0l0,-0.71l1.42,0l0,-0.71l1.42,0l0,-0.71l1.42,0l0,-0.71l1.42,0l0,-0.71l0.71,0l0,-0.71l0.71,0l0,-0.71l0.71,0l0,-0.71l0.71,0l0,-0.71l0.71,0l0,-0.71l0.71,0l0,-3.55l0.71,0l0,-2.84l0.71,0l0,-2.13l0.71,0l0,-1.42l0.71,0l0,-1.42l0.71,0l0,-1.42l0.71,0l0,-1.42l0.71,0l0,-0.71l0.71,0l0,-1.42l0.71,0l0,-1.42l0.71,0l0,-0.71l0.71,0l0,-1.42l0.71,0l0,-0.71l0.71,0l0,-1.42l0.71,0l0,-0.71l0.71,0l0,-0.71l0.71,0l0,-1.42l0.71,0l0,-0.71l0.71,0l0,-0.71l0.71,0l0,-1.42l0.71,0l0,-0.71l0.71,0l0,-0.71l0.71,0l0,-0.71l0.71,0l0,-1.42l0.71,0l0,-0.71l0.71,0l0,-0.71l0.71,0l0,-0.71l0.71,0l0,-0.71l0.71,0l0,-1.42l0.71,0l0,-0.71l0.71,0l0,-0.71l0.71,0l0,-0.71l0.71,0l0,-0.71l0.71,0l0,-0.71l0.71,0l0,-0.71l0.71,0l0,-0.71l0.71,0l0,-0.71l0.71,0l0,-0.71l0.71,0l0,-0.71l0.71,0l0,-0.71l0.71,0l0,-0.71l0.71,0l0,-0.71l0.71,0l0,-1.42l-2.13,0l0,0.71l-2.13,0l0,0.71l-2.84,0l0,0.71l-2.13,0l0,0.71l-2.13,0l0,0.71l-2.13,0l0,0.71l-2.13,0l0,0.71l-2.13,0l0,0.71l-2.13,0l0,0.71l-1.42,0l0,0.71l-2.13,0l0,0.71l-2.13,0l0,0.71l-1.42,0l0,0.71l-2.13,0l0,0.71l-1.42,0l0,0.71l-2.13,0l0,0.71l-1.42,0l0,0.71l-2.13,0l0,0.71l-1.42,0l0,0.71l-2.13,0l0,0.71l-1.42,0l0,0.71l-1.42,0l0,0.71l-1.42,0l0,0.71l-2.13,0l0,0.71l-1.42,0l0,0.71l-1.42,0l0,0.71l-1.42,0l0,0.71l-1.42,0l0,0.71l-1.42,0l0,0.71l-1.42,0l0,0.71l-1.42,0l0,0.71l-1.42,0l0,0.71l-1.42,0l0,0.71l-1.42,0l0,0.71l-1.42,0l0,0.71l-0.71,0l0,0.71l-1.42,0l0,0.71l-1.42,0l0,0.71l-0.71,0l0,0.71l-1.42,0l0,0.71l-0.71,0l0,0.71l-1.42,0l0,0.71l-0.71,0l0,0.71l-0.71,0l0,0.71l-1.42,0l0,0.71l-0.71,0l0,0.71l-0.71,0l0,0.71l-0.71,0l0,1.42l-0.71,0l0,1.42l-0.71,0l0,4.26l0.71,0l0,2.13l0.71,0l0,0.71l0.71,0l0,0.71l0.71,0l0,0.71l0.71,0l0,0.71l0.71,0l0,0.71l0.71,0l0,0.71l0.71,0l0,0.71l1.42,0l0,0.71l0.71,0l0,0.71l1.42,0l0,0.71l1.42,0l0,0.71l1.42,0l0,0.71l1.42,0l0,0.71l1.42,0l0,0.71l1.42,0l0,0.71l1.42,0l0,0.71l2.13,0l0,0.71l-1.42,0l0,0.71l-2.13,0l0,0.71l-2.13,0l0,0.71l-2.13,0l0,0.71l-1.42,0l0,-0.71l-1.42,0l0,-0.71l-1.42,0l0,-0.71l-1.42,0l0,-0.71l-1.42,0l0,-0.71l-1.42,0l0,-0.71l-1.42,0l0,-0.71l-0.71,0l0,-0.71l-1.42,0l0,-0.71l-0.71,0l0,-0.71l-0.71,0l0,-0.71l-0.71,0l0,-0.71l-0.71,0l0,-0.71l-0.71,0l0,-0.71l-0.71,0l0,-0.71l-0.71,0l0,-0.71l-0.71,0l0,-0.71l-0.71,0l0,-1.42l-0.71,0l0,-1.42l-0.71,0l0,-2.84l-0.71,0l0,-4.26l0.71,0l0,-2.84l0.71,0l0,-1.42l0.71,0l0,-1.42l0.71,0l0,-0.71l0.71,0l0,-1.42l0.71,0l0,-0.71l0.71,0l0,-0.71l0.71,0l0,-0.71l0.71,0l0,-0.71l0.71,0l0,-0.71l0.71,0l0,-0.71l0.71,0l0,-0.71l0.71,0l0,-0.71l0.71,0l0,-0.71l1.42,0l0,-0.71l0.71,0l0,-0.71l0.71,0l0,-0.71l1.42,0l0,-0.71l0.71,0l0,-0.71l1.42,0l0,-0.71l0.71,0l0,-0.71l1.42,0l0,-0.71l1.42,0l0,-0.71l0.71,0l0,-0.71l1.42,0l0,-0.71l1.42,0l0,-0.71l0.71,0l0,-0.71l1.42,0l0,-0.71l1.42,0l0,-0.71l1.42,0l0,-0.71l1.42,0l0,-0.71l1.42,0l0,-0.71l1.42,0l0,-0.71l1.42,0l0,-0.71l1.42,0l0,-0.71l1.42,0l0,-0.71l1.42,0l0,-0.71l1.42,0l0,-0.71l1.42,0l0,-0.71l2.13,0l0,-0.71l1.42,0l0,-0.71l1.42,0l0,-0.71l1.42,0l0,-0.71l1.42,0l0,-0.71l2.13,0l0,-0.71l1.42,0l0,-0.71l1.42,0l0,-0.71l2.13,0l0,-0.71l1.42,0l0,-0.71l1.42,0l0,-0.71l2.13,0l0,-0.71l1.42,0l0,-0.71l2.13,0l0,-0.71l1.42,0l0,-0.71l1.42,0l0,-0.71l2.13,0l0,-0.71l1.42,0l0,-0.71l2.13,0l0,-0.71l2.13,0l0,-0.71l1.42,0l0,-0.71l2.13,0l0,-0.71l1.42,0l0,-0.71l2.13,0l0,-0.71l2.13,0l0,-0.71l1.42,0l0,-0.71l2.13,0l0,-0.71l2.13,0l0,-0.71l1.42,0l0,-0.71l2.13,0l0,-0.71l2.13,0l0,-0.71l2.13,0l0,-0.71l2.13,0l0,-0.71l2.13,0l0,-0.71l2.13,0l0,-0.71l2.13,0l0,-0.71l2.13,0l0,-0.71l2.13,0l0,-0.71l2.13,0l0,-0.71l2.13,0l0,-0.71l2.13,0l0,-0.71l2.13,0l0,-0.71l2.13,0l0,-0.71l2.84,0l0,-0.71l2.84,0l0,-0.71l2.84,0l0,-0.71l4.26,0l0,-0.71l3.54,0l0,-0.71l4.26,0l0,-0.71l4.97,0l0,-0.71l4.96,0l0,-0.71l4.96,0l0,-0.71l4.26,0l0,-0.71l4.97,0l0,-0.71l4.96,0l0,-0.71l4.26,0l0,-0.71l4.25,0l0,-0.71l4.26,0l0,-0.71l4.26,0l0,-0.71l3.54,0l0,-0.71l3.55,0l0,-0.71l2.84,0l0,-0.71l2.84,0l0,-0.71l2.83,0l0,-0.71l2.84,0l0,-0.71l2.84,0l0,-0.71l2.13,0l0,-0.71l2.13,0l0,-0.71l2.83,0l0,-0.71l1.42,0l0,-0.71l2.13,0l0,-0.71l2.13,0l0,-0.71l1.42,0l0,-0.71l2.13,0l0,-0.71l1.42,0l0,-0.71l1.42,0l0,-0.71l1.42,0l0,-0.71l1.42,0l0,-0.71l1.42,0l0,-0.71l0.71,0l0,-0.71l1.42,0l0,-0.71l1.42,0l0,-0.71l0.71,0l0,-0.71l1.42,0l0,-0.71l0.71,0l0,-0.71l0.71,0l0,-0.71l1.42,0l0,-0.71l0.71,0l0,-0.71l0.71,0l0,-0.71l0.71,0l0,-0.71l0.71,0l0,-0.71l0.71,0l0,-0.71l0.71,0l0,-0.71l0.71,0l0,-1.42l0.71,0l0,-0.71l0.71,0l0,-0.71l0.71,0l0,-1.42l0.71,0l0,-1.42l0.71,0l0,-1.42l0.52,0.01z" class="fil0 str0"/>
    <path id="svg_2" fill="#1AFF15" stroke-miterlimit="22.9256" stroke-width="1.53" stroke="#373435" d="m205.71,475.2l0.71,0l0,-0.71l0.71,0l0,-0.71l0.71,0l0,-0.71l0.71,0l0,-0.71l0.71,0l0,-0.71l0.71,0l0,-0.71l25.53,0l0,0.71l10.64,0l0,0.71l4.26,0l0,0.71l3.55,0l0,0.71l2.84,0l0,0.71l2.84,0l0,0.71l2.13,0l0,0.71l2.84,0l0,0.71l1.42,0l0,0.71l2.13,0l0,0.71l2.13,0l0,0.71l1.42,0l0,0.71l1.42,0l0,0.71l1.42,0l0,0.71l1.42,0l0,0.71l1.42,0l0,0.71l1.42,0l0,0.71l0.71,0l0,0.71l1.42,0l0,0.71l0.71,0l0,0.71l0.71,0l0,0.71l1.42,0l0,0.71l0.71,0l0,0.71l0.71,0l0,0.71l1.42,0l0,0.71l0.71,0l0,0.71l0.71,0l0,0.71l0.71,0l0,0.71l0.71,0l0,0.71l0.71,0l0,0.71l0.71,0l0,0.71l0.71,0l0,0.71l0.71,0l0,0.71l0.71,0l0,0.71l0.71,0l0,0.71l0.71,0l0,0.71l0.71,0l0,1.42l-0.71,0l0,-0.71l-2.84,0l0,-0.71l-8.51,0l0,0.71l-4.26,0l0,0.71l-4.97,0l0,0.71l-4.25,0l0,-0.71l-2.13,0l0,-0.71l-1.42,0l0,-0.71l-1.42,0l0,-0.71l-0.71,0l0,-0.71l-1.42,0l0,-0.71l-0.71,0l0,-0.71l-0.71,0l0,-0.71l-0.71,0l0,-0.71l-1.42,0l0,-0.71l-0.71,0l0,-0.71l-0.71,0l0,-0.71l-0.71,0l0,-0.71l-0.71,0l0,-0.71l-0.71,0l0,-0.71l-0.71,0l0,-0.71l-0.71,0l0,-0.71l-0.71,0l0,-0.71l-1.42,0l0,-0.71l-0.71,0l0,-0.71l-0.71,0l0,-0.71l-1.42,0l0,-0.71l-0.71,0l0,-0.71l-1.42,0l0,-0.71l-1.42,0l0,-0.71l-2.13,0l0,-0.71l-2.84,0l0,-0.71l-4.25,0l0,-0.71l-4.26,0l0,-0.71l-6.38,0l0,-0.71l-8.51,0l0,-0.71l-11.35,0l0,-1.42l-0.02,0zm32.62,-41.84l-9.22,0l0,0.71l-5.67,0l0,0.71l-3.55,0l0,0.71l-2.13,0l0,0.71l-1.42,0l0,0.71l-2.13,0l0,0.71l-1.42,0l0,0.71l-1.42,0l0,0.71l-1.42,0l0,0.71l-0.71,0l0,0.71l-1.42,0l0,0.71l-1.42,0l0,0.71l-0.71,0l0,0.71l-1.42,0l0,0.71l-0.71,0l0,0.71l-0.71,0l0,0.71l-1.42,0l0,0.71l-0.71,0l0,0.71l-1.42,0l0,0.71l-0.71,0l0,0.71l-0.71,0l0,0.71l-0.71,0l0,0.71l-1.42,0l0,0.71l-0.71,0l0,0.71l-0.71,0l0,0.71l-0.71,0l0,0.71l-0.71,0l0,0.71l-1.42,0l0,0.71l-0.71,0l0,0.71l-0.71,0l0,0.71l-0.71,0l0,0.71l-0.71,0l0,0.71l-0.71,0l0,0.71l-1.42,0l0,0.71l-0.71,0l0,0.71l-0.71,0l0,0.71l-0.71,0l0,0.71l-0.71,0l0,0.71l-0.71,0l0,0.71l-1.42,0l0,0.71l-0.71,0l0,0.71l-0.71,0l0,0.71l-0.71,0l0,0.71l-0.71,0l0,0.71l-0.71,0l0,0.71l-1.42,0l0,0.71l-0.71,0l0,0.71l-0.71,0l0,0.71l-0.71,0l0,0.71l-0.71,0l0,0.71l-1.42,0l0,0.71l-0.71,0l0,0.71l-0.71,0l0,0.71l-0.71,0l0,0.71l-1.42,0l0,0.71l-0.71,0l0,0.71l-0.71,0l0,0.71l-1.42,0l0,0.71l-0.71,0l0,0.71l-0.71,0l0,0.71l-1.42,0l0,0.71l-0.71,0l0,0.71l-1.42,0l0,0.71l-1.42,0l0,0.71l-0.71,0l0,0.71l-1.42,0l0,0.71l-1.42,0l0,0.71l-0.71,0l0,0.71l-1.42,0l0,0.71l-1.42,0l0,0.71l-2.13,0l0,0.71l-1.42,0l0,0.71l-2.13,0l0,0.71l-2.13,0l0,0.71l-4.26,0l0,0.71l-20.56,0l0,0.71l-7.8,0l0,0.71l-4.26,0l0,0.71l-2.83,0l0,0.71l-2.13,0l0,0.71l-2.13,0l0,0.71l-1.42,0l0,0.71l-1.42,0l0,0.71l-1.42,0l0,0.71l-1.42,0l0,0.71l-1.42,0l0,0.71l-0.71,0l0,0.71l-0.71,0l0,0.71l-1.42,0l0,0.71l-0.71,0l0,0.71l-0.71,0l0,0.71l-0.71,0l0,0.71l-0.71,0l0,0.71l-0.71,0l0,0.71l-0.71,0l0,0.71l-0.71,0l0,1.42l-0.71,0l0,0.71l-0.71,0l0,1.42l-0.71,0l0,0.71l-0.71,0l0,1.42l-0.71,0l0,0.71l-0.71,0l0,1.42l-0.71,0l0,1.42l-0.71,0l0,1.42l-0.71,0l0,2.13l-0.71,0l0,2.13l-0.71,0l0,6.38l66.66,0l0,-16.31l0.71,0l0,-7.8l0.71,0l0,-4.25l0.71,0l0,-2.13l1.42,0l0,-0.71l2.13,0l0,-0.71l1.42,0l0,-0.71l2.13,0l0,-0.71l1.42,0l0,-0.71l1.42,0l0,-0.71l1.42,0l0,-0.71l1.42,0l0,-0.71l0.71,0l0,-0.71l1.42,0l0,-0.71l1.42,0l0,-0.71l0.71,0l0,-0.71l1.42,0l0,-0.71l0.71,0l0,-0.71l0.71,0l0,-0.71l1.42,0l0,-0.71l0.71,0l0,-0.71l1.42,0l0,-0.71l0.71,0l0,-0.71l0.71,0l0,-0.71l0.71,0l0,-0.71l1.42,0l0,-0.71l0.71,0l0,-0.71l0.71,0l0,-0.71l0.71,0l0,-0.71l1.42,0l0,-0.71l0.71,0l0,-0.71l0.71,0l0,-0.71l0.71,0l0,-0.71l0.71,0l0,-0.71l0.71,0l0,-0.71l0.71,0l0,-0.71l1.42,0l0,-0.71l0.71,0l0,-0.71l0.71,0l0,-0.71l0.71,0l0,-0.71l0.71,0l0,-0.71l0.71,0l0,-0.71l0.71,0l0,-0.71l0.71,0l0,-0.71l0.71,0l0,-0.71l0.71,0l0,-0.71l0.71,0l0,-0.71l0.71,0l0,-0.71l0.71,0l0,-0.71l1.42,0l0,-0.71l0.71,0l0,-0.71l0.71,0l0,-0.71l0.71,0l0,-0.71l0.71,0l0,-0.71l0.71,0l0,-0.71l0.71,0l0,-0.71l0.71,0l0,-0.71l0.71,0l0,-0.71l0.71,0l0,-0.71l0.71,0l0,-0.71l1.42,0l0,-0.71l0.71,0l0,-0.71l0.71,0l0,-0.71l0.71,0l0,-0.71l0.71,0l0,-0.71l0.71,0l0,-0.71l1.42,0l0,-0.71l0.71,0l0,-0.71l0.71,0l0,-0.71l1.42,0l0,-0.71l0.71,0l0,-0.71l1.42,0l0,-0.71l0.71,0l0,-0.71l1.42,0l0,-0.71l1.42,0l0,-0.71l1.42,0l0,-0.71l1.42,0l0,-0.71l2.13,0l0,3.55l-0.71,0l0,2.84l-0.71,0l0,2.13l-0.71,0l0,1.42l-0.71,0l0,1.42l-0.71,0l0,2.13l-0.71,0l0,1.42l-0.71,0l0,1.42l-0.71,0l0,0.71l-0.71,0l0,1.42l-0.71,0l0,1.42l-0.71,0l0,0.71l-0.71,0l0,1.42l-0.71,0l0,0.71l-0.71,0l0,1.42l-0.71,0l0,0.71l-0.71,0l0,1.42l-0.71,0l0,0.71l-0.71,0l0,0.71l-0.71,0l0,1.42l-0.71,0l0,0.71l-0.71,0l0,0.71l-0.71,0l0,0.71l-0.71,0l0,1.42l-0.71,0l0,0.71l-0.71,0l0,0.71l-0.71,0l0,0.71l-0.71,0l0,0.71l-0.71,0l0,0.71l-0.71,0l0,0.71l-0.71,0l0,0.71l-0.71,0l0,0.71l-1.42,0l0,0.71l-0.71,0l0,0.71l-1.42,0l0,0.71l-0.71,0l0,0.71l-1.42,0l0,0.71l-1.42,0l0,0.71l-2.13,0l0,0.71l-1.42,0l0,0.71l-2.84,0l0,0.71l-2.13,0l0,0.71l-2.13,0l0,0.71l-2.13,0l0,0.71l-1.42,0l0,0.71l-2.13,0l0,0.71l-0.71,0l0,0.71l-1.42,0l0,0.71l-0.71,0l0,0.71l-0.71,0l0,0.71l-0.71,0l0,0.71l-0.71,0l0,0.71l-0.71,0l0,0.71l-0.71,0l0,1.42l-0.71,0l0,0.71l-0.71,0l0,1.42l-0.71,0l0,1.42l-0.71,0l0,1.42l-0.71,0l0,1.42l-0.71,0l0,2.84l-0.71,0l0,2.84l-0.71,0l0,13.47l0.71,0l0,2.13l132.61,0l0,-2.13l1.42,0l0,-0.71l0.71,0l0,-0.71l0.71,0l0,-0.71l0.71,0l0,-1.42l0.71,0l0,-0.71l0.71,0l0,-1.42l0.71,0l0,-1.42l0.71,0l0,-1.42l0.71,0l0,-2.13l0.71,0l0,-2.13l0.71,0l0,-2.84l0.71,0l0,-3.54l0.71,0l0,-4.97l0.71,0l0,-7.09l0.71,0l0,-17.73l-0.71,0l0,-5.67l-0.71,0l0,-4.26l-0.71,0l0,-2.84l-0.71,0l0,-2.84l-0.71,0l0,-2.13l-0.71,0l0,-2.13l-0.71,0l0,-1.42l-0.71,0l0,-1.42l-0.71,0l0,-0.71l-0.71,0l0,-1.42l-0.71,0l0,-0.71l-0.71,0l0,-0.71l-0.71,0l0,-0.71l-1.42,0l0,-0.71l-1.42,0l0,-0.71l-2.13,0l0,-0.71l-11.35,0l0,0.71l-6.38,0l0,0.71l-9.93,0l0,-0.71l-4.26,0l0,-0.71l-2.83,0l0,-0.71l-2.84,0l0,-0.71l-1.42,0l0,-0.71l-2.13,0l0,-0.71l-1.42,0l0,-0.71l-1.42,0l0,-0.71l-1.42,0l0,-0.71l-1.42,0l0,-0.71l-0.71,0l0,-0.71l-1.42,0l0,-0.71l-0.71,0l0,-0.71l-1.42,0l0,-0.71l-0.71,0l0,-0.71l-2.84,0l0,0.71l0.13,-0.06z" class="fil0 str0"/>
    <polygon id="svg_3" fill="#1AFF15" stroke-miterlimit="22.9256" stroke-width="1.53" stroke="#373435" points="396.48,297.19 397.19,297.19 397.19,299.32 397.9,299.32 397.9,300.03 398.61,300.03 398.61,300.74 399.31,300.74 399.31,301.45 400.73,301.45 400.73,302.16 402.86,302.16 402.86,302.87 404.99,302.87 404.99,302.16 407.83,302.16 407.83,301.45 409.24,301.45 409.24,300.74 409.95,300.74 409.95,300.03 410.66,300.03 410.66,299.32 409.95,299.32 409.95,298.61 407.12,298.61 407.12,297.9 405.7,297.9 405.7,297.19 404.99,297.19 404.99,296.49 403.57,296.49 403.57,295.78 402.86,295.78 402.86,295.07 402.15,295.07 402.15,294.36 400.73,294.36 400.73,293.65 399.31,293.65 399.31,292.94 396.48,292.94 " class="fil0 str0"/>
    <polygon id="svg_4" fill="#1AFF15" stroke-miterlimit="22.9256" stroke-width="1.53" stroke="#373435" points="350.38,361.73 351.09,361.73 351.09,360.31 350.38,360.31 " class="fil0 str0"/>
    <polygon id="svg_5" fill="#1AFF15" stroke-miterlimit="22.9256" stroke-width="1.53" stroke="#373435" points="319.89,336.91 320.6,336.91 320.6,336.2 319.89,336.2 " class="fil0 str0"/>
   </g>
  </g>
 </g>
</svg>